<svg width="57" height="49" viewBox="0 0 57 49" fill="none" xmlns="http://www.w3.org/2000/svg">
<g filter="url(#filter0_d_5870_85620)">
<path fill-rule="evenodd" clip-rule="evenodd" d="M18.952 33.6684L18.9625 33.6778C19.2167 33.8947 19.5459 34.009 19.8827 33.9994C20.2194 33.9899 20.5414 33.8573 20.7821 33.6261C21.0232 33.3947 21.1647 33.0817 21.1749 32.7506C21.185 32.4195 21.0629 32.0988 20.8361 31.8538L20.8264 31.8438C18.7964 29.8942 17.658 27.2525 17.658 24.5C17.658 21.7476 18.7964 19.1058 20.8262 17.1562L20.836 17.1462C21.0628 16.9012 21.185 16.5805 21.1748 16.2494C21.1646 15.9184 21.0231 15.6054 20.7821 15.3739C20.5413 15.1427 20.2193 15.0101 19.8826 15.0005C19.5458 14.991 19.2166 15.1053 18.9624 15.3221L18.952 15.3316C16.4226 17.7624 15 21.06 15 24.5C15 27.94 16.4226 31.2376 18.952 33.6684ZM22.8204 30.2227L22.8341 30.2348C23.0893 30.4451 23.4161 30.5539 23.7491 30.5417C24.0822 30.5295 24.3998 30.3971 24.638 30.1684C24.8764 29.9394 25.0177 29.6307 25.0307 29.3033C25.0437 28.9759 24.9273 28.6574 24.7073 28.4112L24.6947 28.3981C23.6177 27.3639 23.0145 25.9633 23.0145 24.5049C23.0145 23.0494 23.6154 21.6513 24.6885 20.6176C24.8244 20.5044 24.9356 20.3645 25.0153 20.2065C25.0959 20.0466 25.1414 19.8713 25.1486 19.6923C25.1556 19.5135 25.1242 19.3352 25.0564 19.1695C24.9882 19.0031 24.8858 18.8528 24.7558 18.7283C24.6249 18.603 24.4699 18.5056 24.3002 18.4419C24.1297 18.3778 23.9481 18.3483 23.7661 18.355C23.5842 18.3616 23.4053 18.4044 23.2401 18.4808C23.0787 18.5554 22.9338 18.6617 22.8142 18.7932C21.2415 20.308 20.3564 22.3617 20.3564 24.5049C20.3564 26.651 21.2438 28.7073 22.8204 30.2227ZM24.9096 19.6832C24.9154 19.5382 24.8899 19.3937 24.8349 19.2594C24.7793 19.1238 24.6958 19.0014 24.5899 18.9C24.4823 18.797 24.355 18.717 24.2155 18.6647C24.2153 18.6647 24.2157 18.6647 24.2155 18.6647C24.3558 18.7175 24.4833 18.7977 24.5899 18.9C24.6965 19.0024 24.7799 19.1246 24.8349 19.2594C24.8899 19.3937 24.9154 19.5382 24.9096 19.6832ZM20.6166 15.5455C20.4196 15.3563 20.1546 15.2465 19.8759 15.2386C19.8758 15.2386 19.876 15.2386 19.8759 15.2386C20.1546 15.2465 20.4196 15.3563 20.6166 15.5455ZM38.0375 33.6778L38.0479 33.6684C40.5774 31.2376 42 27.9401 42 24.5C42 21.0599 40.5774 17.7624 38.0479 15.3316L38.0375 15.3222C37.7833 15.1052 37.4541 14.991 37.1173 15.0006C36.7806 15.0101 36.4586 15.1427 36.2178 15.3739C35.9768 15.6053 35.8353 15.9183 35.8251 16.2494C35.815 16.5804 35.9371 16.9012 36.1639 17.1462L36.1737 17.1562C38.2035 19.1058 39.3419 21.7475 39.3419 24.5C39.3419 27.2525 38.2035 29.8942 36.1737 31.8438L36.1639 31.8538C35.9371 32.0988 35.815 32.4195 35.8251 32.7506C35.8353 33.0817 35.9768 33.3947 36.2178 33.6261C36.4586 33.8573 36.7806 33.9899 37.1173 33.9994C37.4541 34.009 37.7833 33.8947 38.0375 33.6778ZM34.2177 30.2348L34.2314 30.2227C35.808 28.7073 36.6954 26.6509 36.6954 24.5049C36.6954 22.3617 35.8103 20.308 34.2376 18.7932C34.118 18.6617 33.9731 18.5554 33.8117 18.4808C33.6465 18.4044 33.4676 18.3616 33.2857 18.355C33.1037 18.3483 32.9221 18.3778 32.7516 18.4419C32.5819 18.5056 32.4269 18.603 32.296 18.7283C32.166 18.8528 32.0636 19.0031 31.9954 19.1695C31.9276 19.3352 31.8962 19.5135 31.9032 19.6923C31.9103 19.871 31.9558 20.0461 32.0365 20.2065C32.1157 20.364 32.2271 20.5038 32.3633 20.6176C33.4364 21.6513 34.0373 23.0494 34.0373 24.5049C34.0373 25.9633 33.4341 27.3639 32.3571 28.3981L32.3445 28.4112C32.1245 28.6574 32.0081 28.9759 32.0211 29.3033C32.0341 29.6307 32.1754 29.9394 32.4138 30.1684C32.652 30.3971 32.9696 30.5295 33.3027 30.5417C33.6357 30.5539 33.9625 30.4451 34.2177 30.2348ZM33.7111 18.6968C33.8469 18.7597 33.9676 18.8489 34.0657 18.9587C33.9666 18.8482 33.8459 18.7591 33.7111 18.6968C33.7112 18.6968 33.711 18.6968 33.7111 18.6968ZM37.2783 15.2448C37.5013 15.2688 37.7127 15.3584 37.8823 15.5032C40.3661 17.8901 41.7613 21.126 41.7613 24.5C41.7613 27.874 40.3661 31.1099 37.8823 33.4968C37.6877 33.6629 37.4383 33.7564 37.1793 33.7616C37.437 33.757 37.6856 33.6634 37.8823 33.4968C40.3661 31.1099 41.7613 27.874 41.7613 24.5C41.7613 21.126 40.3661 17.8901 37.8823 15.5032C37.7116 15.3584 37.5009 15.2685 37.2783 15.2448ZM28.4998 21.8538C28.4996 21.8538 28.5 21.8538 28.4998 21.8538V21.8538ZM31.3913 24.5C31.3913 22.907 30.0969 21.6156 28.5003 21.6156C26.9036 21.6156 25.6092 22.907 25.6092 24.5C25.6092 26.093 26.9036 27.3844 28.5003 27.3844C30.0969 27.3844 31.3913 26.093 31.3913 24.5Z" fill="#FF9400"/>
</g>
<defs>
<filter id="filter0_d_5870_85620" x="-15" y="-15" width="87" height="79" filterUnits="userSpaceOnUse" color-interpolation-filters="sRGB">
<feFlood flood-opacity="0" result="BackgroundImageFix"/>
<feColorMatrix in="SourceAlpha" type="matrix" values="0 0 0 0 0 0 0 0 0 0 0 0 0 0 0 0 0 0 127 0" result="hardAlpha"/>
<feOffset/>
<feGaussianBlur stdDeviation="7.5"/>
<feComposite in2="hardAlpha" operator="out"/>
<feColorMatrix type="matrix" values="0 0 0 0 1 0 0 0 0 0.580392 0 0 0 0 0 0 0 0 1 0"/>
<feBlend mode="normal" in2="BackgroundImageFix" result="effect1_dropShadow_5870_85620"/>
<feBlend mode="normal" in="SourceGraphic" in2="effect1_dropShadow_5870_85620" result="shape"/>
</filter>
</defs>
</svg>
