<svg width="114" height="114" viewBox="0 0 114 114" fill="none" xmlns="http://www.w3.org/2000/svg">
<path d="M57 109C63.83 109.008 70.5943 107.667 76.9043 105.053C83.2143 102.44 88.9457 98.6047 93.7692 93.7692C98.6047 88.9457 102.44 83.2143 105.053 76.9043C107.667 70.5943 109.008 63.83 109 57C109.008 50.17 107.667 43.4057 105.053 37.0957C102.44 30.7857 98.6047 25.0543 93.7692 20.2308C88.9457 15.3952 83.2143 11.5604 76.9043 8.94662C70.5943 6.33283 63.83 4.99162 57 5.00004C50.17 4.99162 43.4057 6.33283 37.0957 8.94662C30.7857 11.5604 25.0543 15.3952 20.2308 20.2308C15.3952 25.0543 11.5604 30.7857 8.94662 37.0957C6.33283 43.4057 4.99162 50.17 5.00004 57C4.99162 63.83 6.33283 70.5943 8.94662 76.9043C11.5604 83.2143 15.3952 88.9457 20.2308 93.7692C25.0543 98.6047 30.7857 102.44 37.0957 105.053C43.4057 107.667 50.17 109.008 57 109Z" stroke="white" stroke-width="10" stroke-linejoin="round"/>
<path d="M37 56.5L52.3333 72L83 41" stroke="white" stroke-width="10" stroke-linecap="round" stroke-linejoin="round"/>
</svg>
