<svg width="115" height="115" viewBox="0 0 115 115" fill="none" xmlns="http://www.w3.org/2000/svg">
<path d="M57.5 104.545C63.6781 104.545 69.7957 103.329 75.5035 100.964C81.2113 98.6001 86.3976 95.1347 90.7662 90.7662C95.1347 86.3976 98.6001 81.2113 100.964 75.5035C103.329 69.7957 104.545 63.6781 104.545 57.5C104.545 51.3219 103.329 45.2043 100.964 39.4965C98.6001 33.7887 95.1347 28.6024 90.7662 24.2338C86.3976 19.8653 81.2113 16.3999 75.5035 14.0357C69.7957 11.6714 63.6781 10.4545 57.5 10.4545C45.0228 10.4545 33.0566 15.4111 24.2338 24.2338C15.4111 33.0566 10.4545 45.0228 10.4545 57.5C10.4545 69.9772 15.4111 81.9434 24.2338 90.7662C33.0566 99.5889 45.0228 104.545 57.5 104.545ZM115 57.5C115 89.2557 89.2557 115 57.5 115C25.7443 115 0 89.2557 0 57.5C0 25.7443 25.7443 0 57.5 0C89.2557 0 115 25.7443 115 57.5ZM73.1818 80.5732L52.2727 59.6641V23.5227H62.7273V55.3359L80.5732 73.1818L73.1818 80.5732Z" fill="white"/>
</svg>
