<svg width="12" height="14" viewBox="0 0 12 14" fill="none" xmlns="http://www.w3.org/2000/svg">
<path d="M1.08301 5.79169V11.7497H8.58301V11.9997H1.5C1.35654 11.9997 1.21108 11.9389 1.09863 11.8171C0.985245 11.6942 0.917072 11.5206 0.916992 11.3337V5.79169H1.08301ZM3.5 3.08368H10.5C10.6435 3.08368 10.7889 3.14448 10.9014 3.2663C11.0148 3.38916 11.0829 3.56275 11.083 3.74969V9.16669C11.083 9.35367 11.0147 9.52716 10.9014 9.65009C10.7889 9.7719 10.6435 9.83368 10.5 9.83368H3.5C3.35654 9.83368 3.21108 9.7719 3.09863 9.65009C2.98528 9.52716 2.91699 9.35367 2.91699 9.16669V3.74969C2.91715 3.34672 3.20597 3.08368 3.5 3.08368ZM3.08301 9.58368H10.917V6.04169H3.08301V9.58368ZM3.08301 5.24969H10.917V3.33368H3.08301V5.24969Z" fill="#DFDFDF" stroke="#DFDFDF" stroke-width="0.833333"/>
</svg>
