<svg width="45" height="45" viewBox="0 0 45 45" fill="none" xmlns="http://www.w3.org/2000/svg">
<path d="M35.331 14.7656C35.0735 18.3401 32.4218 21.0938 29.5302 21.0938C26.6386 21.0938 23.9826 18.341 23.7295 14.7656C23.4658 11.047 26.0471 8.4375 29.5302 8.4375C33.0133 8.4375 35.5947 11.1146 35.331 14.7656Z" stroke="white" stroke-width="2.8125" stroke-linecap="round" stroke-linejoin="round"/>
<path d="M29.5309 26.7188C23.8031 26.7188 18.295 29.5638 16.9151 35.1044C16.7323 35.8374 17.1919 36.5625 17.9452 36.5625H41.1175C41.8707 36.5625 42.3278 35.8374 42.1476 35.1044C40.7677 29.475 35.2596 26.7188 29.5309 26.7188Z" stroke="white" stroke-width="2.8125" stroke-miterlimit="10"/>
<path d="M17.5771 16.3424C17.3714 19.1971 15.2286 21.4453 12.9189 21.4453C10.6091 21.4453 8.46281 19.1979 8.26067 16.3424C8.05061 13.3726 10.1363 11.25 12.9189 11.25C15.7015 11.25 17.7871 13.4271 17.5771 16.3424Z" stroke="white" stroke-width="2.8125" stroke-linecap="round" stroke-linejoin="round"/>
<path d="M18.1063 26.895C16.5199 26.1682 14.7726 25.8887 12.9208 25.8887C8.35047 25.8887 3.94715 28.1606 2.84412 32.5859C2.6991 33.1713 3.06648 33.7505 3.66766 33.7505H13.536" stroke="white" stroke-width="2.8125" stroke-miterlimit="10" stroke-linecap="round"/>
</svg>
