<svg width="16" height="13" viewBox="0 0 16 13" fill="none" xmlns="http://www.w3.org/2000/svg">
<path d="M15.998 4.48176C15.3433 7.30039 14.5405 10.384 13.9139 12.9132C13.9139 12.9132 5.89189 13 2.01201 13C1.35936 10.2192 0.714715 7.47851 0 4.43946C1.51151 5.22538 2.82482 5.87995 4.1041 6.61021C4.27828 6.7104 4.32032 7.17794 4.35636 7.48519C4.45846 8.35126 4.87287 8.85443 5.65966 8.85888C6.5025 8.86333 6.91491 8.3045 7.003 7.40281C7.08909 6.51892 6.95896 5.733 6.34434 5.07621C5.98799 4.6955 5.71572 4.21904 5.34935 3.70697C6.2042 2.51362 7.04905 1.33585 8.00801 0C8.91291 1.25569 9.76977 2.44905 10.6727 3.70252C10.2983 4.22572 9.99399 4.76229 9.59359 5.18753C8.95295 5.86436 8.93694 6.69481 9.03103 7.5453C9.12512 8.39356 9.59159 8.88337 10.3824 8.86111C11.1211 8.84107 11.6296 8.37352 11.6196 7.56534C11.6076 6.75715 12.006 6.48776 12.5506 6.22281C13.6396 5.69293 14.7187 5.13187 16 4.48399L15.998 4.48176Z" fill="white" fill-opacity="0.5"/>
</svg>
