<svg width="53" height="52" viewBox="0 0 53 52" fill="none" xmlns="http://www.w3.org/2000/svg">
<path d="M36.1667 25.4987V33.832C36.1667 34.3846 35.9472 34.9145 35.5565 35.3052C35.1658 35.6959 34.6359 35.9154 34.0833 35.9154H17.4167C16.8641 35.9154 16.3342 35.6959 15.9435 35.3052C15.5528 34.9145 15.3333 34.3846 15.3333 33.832V25.4987C15.0571 25.4987 14.7921 25.389 14.5968 25.1936C14.4014 24.9983 14.2917 24.7333 14.2917 24.457V21.332C14.2917 20.7795 14.5112 20.2496 14.9019 19.8589C15.2926 19.4682 15.8225 19.2487 16.375 19.2487H19.6771C19.5594 18.914 19.4995 18.5618 19.5 18.207C19.5 17.3782 19.8292 16.5834 20.4153 15.9973C21.0013 15.4113 21.7962 15.082 22.625 15.082C23.6667 15.082 24.5833 15.6029 25.1563 16.3737V16.3633L25.75 17.1654L26.3438 16.3633V16.3737C26.9167 15.6029 27.8333 15.082 28.875 15.082C29.7038 15.082 30.4987 15.4113 31.0847 15.9973C31.6708 16.5834 32 17.3782 32 18.207C32.0005 18.5618 31.9406 18.914 31.8229 19.2487H35.125C35.6775 19.2487 36.2074 19.4682 36.5981 19.8589C36.9888 20.2496 37.2083 20.7795 37.2083 21.332V24.457C37.2083 24.7333 37.0986 24.9983 36.9032 25.1936C36.7079 25.389 36.4429 25.4987 36.1667 25.4987ZM17.4167 33.832H24.7083V25.4987H17.4167V33.832ZM34.0833 33.832V25.4987H26.7917V33.832H34.0833ZM22.625 17.1654C22.3487 17.1654 22.0838 17.2751 21.8884 17.4705C21.6931 17.6658 21.5833 17.9308 21.5833 18.207C21.5833 18.4833 21.6931 18.7483 21.8884 18.9436C22.0838 19.139 22.3487 19.2487 22.625 19.2487C22.9013 19.2487 23.1662 19.139 23.3616 18.9436C23.5569 18.7483 23.6667 18.4833 23.6667 18.207C23.6667 17.9308 23.5569 17.6658 23.3616 17.4705C23.1662 17.2751 22.9013 17.1654 22.625 17.1654ZM28.875 17.1654C28.5987 17.1654 28.3338 17.2751 28.1384 17.4705C27.9431 17.6658 27.8333 17.9308 27.8333 18.207C27.8333 18.4833 27.9431 18.7483 28.1384 18.9436C28.3338 19.139 28.5987 19.2487 28.875 19.2487C29.1513 19.2487 29.4162 19.139 29.6116 18.9436C29.8069 18.7483 29.9167 18.4833 29.9167 18.207C29.9167 17.9308 29.8069 17.6658 29.6116 17.4705C29.4162 17.2751 29.1513 17.1654 28.875 17.1654ZM16.375 21.332V23.4154H24.7083V21.332H16.375ZM26.7917 21.332V23.4154H35.125V21.332H26.7917Z" fill="#DFDFDF"/>
</svg>
