<svg width="53" height="51" viewBox="0 0 53 51" fill="none" xmlns="http://www.w3.org/2000/svg">
<g filter="url(#filter0_d_5195_71077)">
<path d="M36.918 25.5007V33.834C36.918 34.3865 36.6985 34.9164 36.3078 35.3071C35.9171 35.6978 35.3872 35.9173 34.8346 35.9173H18.168C17.6154 35.9173 17.0855 35.6978 16.6948 35.3071C16.3041 34.9164 16.0846 34.3865 16.0846 33.834V25.5007C15.8084 25.5007 15.5434 25.3909 15.3481 25.1956C15.1527 25.0002 15.043 24.7353 15.043 24.459V21.334C15.043 20.7814 15.2625 20.2515 15.6532 19.8608C16.0439 19.4701 16.5738 19.2507 17.1263 19.2507H20.4284C20.3107 18.916 20.2508 18.5637 20.2513 18.209C20.2513 17.3802 20.5805 16.5853 21.1666 15.9993C21.7526 15.4132 22.5475 15.084 23.3763 15.084C24.418 15.084 25.3346 15.6048 25.9076 16.3757V16.3652L26.5013 17.1673L27.0951 16.3652V16.3757C27.668 15.6048 28.5846 15.084 29.6263 15.084C30.4551 15.084 31.25 15.4132 31.836 15.9993C32.4221 16.5853 32.7513 17.3802 32.7513 18.209C32.7518 18.5637 32.6919 18.916 32.5742 19.2507H35.8763C36.4288 19.2507 36.9587 19.4701 37.3494 19.8608C37.7401 20.2515 37.9596 20.7814 37.9596 21.334V24.459C37.9596 24.7353 37.8499 25.0002 37.6545 25.1956C37.4592 25.3909 37.1942 25.5007 36.918 25.5007ZM18.168 33.834H25.4596V25.5007H18.168V33.834ZM34.8346 33.834V25.5007H27.543V33.834H34.8346ZM23.3763 17.1673C23.1 17.1673 22.8351 17.2771 22.6397 17.4724C22.4444 17.6678 22.3346 17.9327 22.3346 18.209C22.3346 18.4853 22.4444 18.7502 22.6397 18.9456C22.8351 19.1409 23.1 19.2507 23.3763 19.2507C23.6526 19.2507 23.9175 19.1409 24.1129 18.9456C24.3082 18.7502 24.418 18.4853 24.418 18.209C24.418 17.9327 24.3082 17.6678 24.1129 17.4724C23.9175 17.2771 23.6526 17.1673 23.3763 17.1673ZM29.6263 17.1673C29.35 17.1673 29.0851 17.2771 28.8897 17.4724C28.6944 17.6678 28.5846 17.9327 28.5846 18.209C28.5846 18.4853 28.6944 18.7502 28.8897 18.9456C29.0851 19.1409 29.35 19.2507 29.6263 19.2507C29.9026 19.2507 30.1675 19.1409 30.3629 18.9456C30.5582 18.7502 30.668 18.4853 30.668 18.209C30.668 17.9327 30.5582 17.6678 30.3629 17.4724C30.1675 17.2771 29.9026 17.1673 29.6263 17.1673ZM17.1263 21.334V23.4173H25.4596V21.334H17.1263ZM27.543 21.334V23.4173H35.8763V21.334H27.543Z" fill="#DFDFDF"/>
<path d="M17.1263 21.334V23.4173H25.4596V21.334H17.1263Z" fill="#DFDFDF"/>
<path d="M27.543 21.334V23.4173H35.8763V21.334H27.543Z" fill="#DFDFDF"/>
</g>
<defs>
<filter id="filter0_d_5195_71077" x="0.0429688" y="0.0839844" width="52.918" height="50.834" filterUnits="userSpaceOnUse" color-interpolation-filters="sRGB">
<feFlood flood-opacity="0" result="BackgroundImageFix"/>
<feColorMatrix in="SourceAlpha" type="matrix" values="0 0 0 0 0 0 0 0 0 0 0 0 0 0 0 0 0 0 127 0" result="hardAlpha"/>
<feOffset/>
<feGaussianBlur stdDeviation="7.5"/>
<feComposite in2="hardAlpha" operator="out"/>
<feColorMatrix type="matrix" values="0 0 0 0 1 0 0 0 0 0.580392 0 0 0 0 0 0 0 0 0.9 0"/>
<feBlend mode="normal" in2="BackgroundImageFix" result="effect1_dropShadow_5195_71077"/>
<feBlend mode="normal" in="SourceGraphic" in2="effect1_dropShadow_5195_71077" result="shape"/>
</filter>
</defs>
</svg>
