<svg width="20" height="18" viewBox="0 0 20 18" fill="none" xmlns="http://www.w3.org/2000/svg">
<path d="M18.332 9.00002V15.6667C18.332 16.1087 18.1564 16.5326 17.8439 16.8452C17.5313 17.1578 17.1074 17.3334 16.6654 17.3334H3.33203C2.89 17.3334 2.46608 17.1578 2.15352 16.8452C1.84096 16.5326 1.66536 16.1087 1.66536 15.6667V9.00002C1.44435 9.00002 1.23239 8.91222 1.07611 8.75594C0.919829 8.59966 0.832031 8.3877 0.832031 8.16669V5.66669C0.832031 5.22466 1.00763 4.80074 1.32019 4.48818C1.63275 4.17561 2.05667 4.00002 2.4987 4.00002H5.14036C5.04618 3.7323 4.99828 3.45049 4.9987 3.16669C4.9987 2.50365 5.26209 1.86776 5.73093 1.39892C6.19977 0.930079 6.83566 0.666687 7.4987 0.666687C8.33203 0.666687 9.06536 1.08335 9.5237 1.70002V1.69169L9.9987 2.33335L10.4737 1.69169V1.70002C10.932 1.08335 11.6654 0.666687 12.4987 0.666687C13.1617 0.666687 13.7976 0.930079 14.2665 1.39892C14.7353 1.86776 14.9987 2.50365 14.9987 3.16669C14.9991 3.45049 14.9512 3.7323 14.857 4.00002H17.4987C17.9407 4.00002 18.3646 4.17561 18.6772 4.48818C18.9898 4.80074 19.1654 5.22466 19.1654 5.66669V8.16669C19.1654 8.3877 19.0776 8.59966 18.9213 8.75594C18.765 8.91222 18.553 9.00002 18.332 9.00002ZM3.33203 15.6667H9.16536V9.00002H3.33203V15.6667ZM16.6654 15.6667V9.00002H10.832V15.6667H16.6654ZM7.4987 2.33335C7.27768 2.33335 7.06572 2.42115 6.90944 2.57743C6.75316 2.73371 6.66536 2.94567 6.66536 3.16669C6.66536 3.3877 6.75316 3.59966 6.90944 3.75594C7.06572 3.91222 7.27768 4.00002 7.4987 4.00002C7.71971 4.00002 7.93167 3.91222 8.08795 3.75594C8.24423 3.59966 8.33203 3.3877 8.33203 3.16669C8.33203 2.94567 8.24423 2.73371 8.08795 2.57743C7.93167 2.42115 7.71971 2.33335 7.4987 2.33335ZM12.4987 2.33335C12.2777 2.33335 12.0657 2.42115 11.9094 2.57743C11.7532 2.73371 11.6654 2.94567 11.6654 3.16669C11.6654 3.3877 11.7532 3.59966 11.9094 3.75594C12.0657 3.91222 12.2777 4.00002 12.4987 4.00002C12.7197 4.00002 12.9317 3.91222 13.088 3.75594C13.2442 3.59966 13.332 3.3877 13.332 3.16669C13.332 2.94567 13.2442 2.73371 13.088 2.57743C12.9317 2.42115 12.7197 2.33335 12.4987 2.33335ZM2.4987 5.66669V7.33335H9.16536V5.66669H2.4987ZM10.832 5.66669V7.33335H17.4987V5.66669H10.832Z" fill="#DFDFDF"/>
</svg>
