<svg width="53" height="52" viewBox="0 0 53 52" fill="none" xmlns="http://www.w3.org/2000/svg">
<g filter="url(#filter0_d_5505_33405)">
<path d="M36.875 25.4167V33.75C36.875 34.3025 36.6555 34.8324 36.2648 35.2231C35.8741 35.6138 35.3442 35.8333 34.7917 35.8333H18.125C17.5725 35.8333 17.0426 35.6138 16.6519 35.2231C16.2612 34.8324 16.0417 34.3025 16.0417 33.75V25.4167C15.7654 25.4167 15.5004 25.3069 15.3051 25.1116C15.1097 24.9162 15 24.6513 15 24.375V21.25C15 20.6975 15.2195 20.1676 15.6102 19.7769C16.0009 19.3862 16.5308 19.1667 17.0833 19.1667H20.3854C20.2677 18.832 20.2078 18.4798 20.2083 18.125C20.2083 17.2962 20.5376 16.5013 21.1236 15.9153C21.7097 15.3292 22.5045 15 23.3333 15C24.375 15 25.2917 15.5208 25.8646 16.2917V16.2812L26.4583 17.0833L27.0521 16.2812V16.2917C27.625 15.5208 28.5417 15 29.5833 15C30.4121 15 31.207 15.3292 31.793 15.9153C32.3791 16.5013 32.7083 17.2962 32.7083 18.125C32.7089 18.4798 32.649 18.832 32.5312 19.1667H35.8333C36.3859 19.1667 36.9158 19.3862 37.3065 19.7769C37.6972 20.1676 37.9167 20.6975 37.9167 21.25V24.375C37.9167 24.6513 37.8069 24.9162 37.6116 25.1116C37.4162 25.3069 37.1513 25.4167 36.875 25.4167ZM18.125 33.75H25.4167V25.4167H18.125V33.75ZM34.7917 33.75V25.4167H27.5V33.75H34.7917ZM23.3333 17.0833C23.0571 17.0833 22.7921 17.1931 22.5968 17.3884C22.4014 17.5838 22.2917 17.8487 22.2917 18.125C22.2917 18.4013 22.4014 18.6662 22.5968 18.8616C22.7921 19.0569 23.0571 19.1667 23.3333 19.1667C23.6096 19.1667 23.8746 19.0569 24.0699 18.8616C24.2653 18.6662 24.375 18.4013 24.375 18.125C24.375 17.8487 24.2653 17.5838 24.0699 17.3884C23.8746 17.1931 23.6096 17.0833 23.3333 17.0833ZM29.5833 17.0833C29.3071 17.0833 29.0421 17.1931 28.8468 17.3884C28.6514 17.5838 28.5417 17.8487 28.5417 18.125C28.5417 18.4013 28.6514 18.6662 28.8468 18.8616C29.0421 19.0569 29.3071 19.1667 29.5833 19.1667C29.8596 19.1667 30.1246 19.0569 30.3199 18.8616C30.5153 18.6662 30.625 18.4013 30.625 18.125C30.625 17.8487 30.5153 17.5838 30.3199 17.3884C30.1246 17.1931 29.8596 17.0833 29.5833 17.0833ZM17.0833 21.25V23.3333H25.4167V21.25H17.0833ZM27.5 21.25V23.3333H35.8333V21.25H27.5Z" fill="#DFDFDF"/>
<path d="M17.0833 21.25V23.3333H25.4167V21.25H17.0833Z" fill="#DFDFDF"/>
<path d="M27.5 21.25V23.3333H35.8333V21.25H27.5Z" fill="#DFDFDF"/>
</g>
<defs>
<filter id="filter0_d_5505_33405" x="0" y="0" width="52.9167" height="50.832" filterUnits="userSpaceOnUse" color-interpolation-filters="sRGB">
<feFlood flood-opacity="0" result="BackgroundImageFix"/>
<feColorMatrix in="SourceAlpha" type="matrix" values="0 0 0 0 0 0 0 0 0 0 0 0 0 0 0 0 0 0 127 0" result="hardAlpha"/>
<feOffset/>
<feGaussianBlur stdDeviation="7.5"/>
<feComposite in2="hardAlpha" operator="out"/>
<feColorMatrix type="matrix" values="0 0 0 0 1 0 0 0 0 0.580392 0 0 0 0 0 0 0 0 0.9 0"/>
<feBlend mode="normal" in2="BackgroundImageFix" result="effect1_dropShadow_5505_33405"/>
<feBlend mode="normal" in="SourceGraphic" in2="effect1_dropShadow_5505_33405" result="shape"/>
</filter>
</defs>
</svg>
