<svg width="12" height="14" viewBox="0 0 12 14" fill="none" xmlns="http://www.w3.org/2000/svg">
<path d="M2.98535 3.08368L3.12305 3.38251L3.23438 3.62469H11.084V4.95868H10.584V5.49969H8.00098C7.74661 5.49969 7.50968 5.60973 7.34082 5.79266C7.30733 5.82896 7.27811 5.86838 7.25098 5.90887C7.22385 5.86838 7.19461 5.82896 7.16113 5.79266C6.99228 5.60974 6.75533 5.49971 6.50098 5.49969H5.81836L5.69434 5.63446L5.68848 5.64032C5.68602 5.64307 5.68304 5.64718 5.67969 5.65106C5.67309 5.65872 5.66478 5.66849 5.65527 5.68036C5.6358 5.70471 5.61037 5.7385 5.58301 5.77997C5.53627 5.85085 5.47983 5.95141 5.43555 6.07391C5.42468 6.02314 5.41797 5.97062 5.41797 5.91669V5.49969H5.00098C4.74661 5.49969 4.50968 5.60973 4.34082 5.79266C4.1731 5.97445 4.08398 6.21487 4.08398 6.45868V6.99969C4.08398 7.2435 4.17309 7.48392 4.34082 7.66571C4.36935 7.69662 4.40046 7.72509 4.43262 7.75165C4.23447 7.84593 4.07487 8.01148 3.98242 8.21161L2.75781 10.861C2.74607 10.8864 2.73117 10.8999 2.7207 10.9069C2.71079 10.9135 2.70152 10.9166 2.69141 10.9167H1.01074C1.00149 10.9151 0.987624 10.9114 0.973633 10.905C0.955356 10.8965 0.922325 10.8788 0.899414 10.8044C0.870948 10.7118 0.84998 10.4992 0.977539 10.0847C1.10341 9.67566 1.36302 9.10326 1.84766 8.31415C1.84834 8.31314 1.84975 8.31245 1.85059 8.31122C1.85418 8.30591 1.85911 8.29801 1.86523 8.28876C1.87746 8.27028 1.89461 8.24422 1.91504 8.21161C1.95601 8.14619 2.01151 8.05309 2.07129 7.94208C2.18829 7.72474 2.33273 7.41625 2.40723 7.09344C2.47873 6.7834 2.50665 6.36661 2.26562 6.01825C2.07903 5.74872 1.7852 5.59501 1.41797 5.5329V3.62469H1.76758L1.87891 3.38251L2.0166 3.08368H2.98535Z" fill="#DFDFDF" stroke="#DFDFDF" stroke-width="0.833333"/>
</svg>
