<svg width="30" height="30" viewBox="0 0 30 30" fill="none" xmlns="http://www.w3.org/2000/svg">
<path d="M3.24518 21.7675C2.77444 22.2362 2.50991 22.872 2.50977 23.535V26.25C2.50977 26.5815 2.64199 26.8994 2.87734 27.1338C3.1127 27.3683 3.4319 27.5 3.76475 27.5H7.52969C7.86253 27.5 8.18174 27.3683 8.41709 27.1338C8.65245 26.8994 8.78467 26.5815 8.78467 26.25V25C8.78467 24.6684 8.91689 24.3505 9.15224 24.1161C9.3876 23.8817 9.7068 23.75 10.0396 23.75H11.2946C11.6275 23.75 11.9467 23.6183 12.182 23.3838C12.4174 23.1494 12.5496 22.8315 12.5496 22.5V21.25C12.5496 20.9184 12.6818 20.6005 12.9172 20.3661C13.1525 20.1317 13.4717 20 13.8046 20H14.0204C14.6861 19.9998 15.3244 19.7363 15.795 19.2675L16.8165 18.25C18.5608 18.8551 20.4595 18.8528 22.2023 18.2434C23.945 17.634 25.4285 16.4535 26.4101 14.8951C27.3916 13.3367 27.8132 11.4927 27.6057 9.66463C27.3983 7.83658 26.5741 6.13277 25.2681 4.83192C23.9621 3.53107 22.2515 2.71019 20.4162 2.50357C18.5808 2.29695 16.7294 2.71683 15.1648 3.69451C13.6002 4.67219 12.4151 6.1498 11.8032 7.88561C11.1913 9.62141 11.189 11.5127 11.7966 13.25L3.24518 21.7675Z" stroke="white" stroke-width="2.5" stroke-linecap="round" stroke-linejoin="round"/>
<path d="M20.7071 9.99994C21.0536 9.99994 21.3346 9.72012 21.3346 9.37494C21.3346 9.02976 21.0536 8.74994 20.7071 8.74994C20.3605 8.74994 20.0796 9.02976 20.0796 9.37494C20.0796 9.72012 20.3605 9.99994 20.7071 9.99994Z" fill="white" stroke="white" stroke-width="2.5" stroke-linecap="round" stroke-linejoin="round"/>
</svg>
