<svg width="28" height="28" viewBox="0 0 28 28" fill="none" xmlns="http://www.w3.org/2000/svg">
<path d="M1.98542 20.5653C1.51468 21.034 1.25014 21.6698 1.25 22.3328V25.0478C1.25 25.3793 1.38222 25.6973 1.61758 25.9317C1.85293 26.1661 2.17214 26.2978 2.50498 26.2978H6.26992C6.60276 26.2978 6.92197 26.1661 7.15733 25.9317C7.39268 25.6973 7.5249 25.3793 7.5249 25.0478V23.7978C7.5249 23.4663 7.65712 23.1483 7.89248 22.9139C8.12783 22.6795 8.44704 22.5478 8.77988 22.5478H10.0349C10.3677 22.5478 10.6869 22.4161 10.9223 22.1817C11.1576 21.9473 11.2898 21.6293 11.2898 21.2978V20.0478C11.2898 19.7163 11.4221 19.3983 11.6574 19.1639C11.8928 18.9295 12.212 18.7978 12.5448 18.7978H12.7607C13.4263 18.7977 14.0646 18.5342 14.5352 18.0653L15.5568 17.0478C17.301 17.653 19.1998 17.6507 20.9425 17.0412C22.6852 16.4318 24.1687 15.2514 25.1503 13.693C26.1319 12.1346 26.5534 10.2905 26.346 8.46248C26.1385 6.63444 25.3144 4.93062 24.0083 3.62977C22.7023 2.32892 20.9917 1.50804 19.1564 1.30142C17.3211 1.0948 15.4697 1.51468 13.9051 2.49236C12.3405 3.47004 11.1553 4.94765 10.5434 6.68346C9.93158 8.41927 9.92926 10.3105 10.5369 12.0478L1.98542 20.5653Z" stroke="white" stroke-width="2.5" stroke-linecap="round" stroke-linejoin="round"/>
<path d="M19.4478 8.79785C19.7944 8.79785 20.0753 8.51803 20.0753 8.17285C20.0753 7.82767 19.7944 7.54785 19.4478 7.54785C19.1012 7.54785 18.8203 7.82767 18.8203 8.17285C18.8203 8.51803 19.1012 8.79785 19.4478 8.79785Z" fill="white" stroke="white" stroke-width="2.5" stroke-linecap="round" stroke-linejoin="round"/>
</svg>
