<svg width="30" height="30" viewBox="0 0 30 30" fill="none" xmlns="http://www.w3.org/2000/svg">
<path d="M25.8 8.25H4.2C2.70883 8.25 1.5 9.49721 1.5 11.0357V24.9643C1.5 26.5028 2.70883 27.75 4.2 27.75H25.8C27.2912 27.75 28.5 26.5028 28.5 24.9643V11.0357C28.5 9.49721 27.2912 8.25 25.8 8.25Z" stroke="white" stroke-width="2" stroke-linecap="round" stroke-linejoin="round"/>
<path d="M21 27V4.77778C21 4.04107 20.6839 3.33453 20.1213 2.81359C19.5587 2.29266 18.7956 2 18 2H12C11.2044 2 10.4413 2.29266 9.87868 2.81359C9.31607 3.33453 9 4.04107 9 4.77778V27" stroke="white" stroke-width="2" stroke-linecap="round" stroke-linejoin="round"/>
</svg>
