<svg width="59" height="58" viewBox="0 0 59 58" fill="none" xmlns="http://www.w3.org/2000/svg">
<g filter="url(#filter0_d_5505_34220)">
<path d="M39.8611 23.2109H19.0611C17.6251 23.2109 16.4611 24.412 16.4611 25.8935V39.3062C16.4611 40.7877 17.6251 41.9887 19.0611 41.9887H39.8611C41.297 41.9887 42.4611 40.7877 42.4611 39.3062V25.8935C42.4611 24.412 41.297 23.2109 39.8611 23.2109Z" stroke="#DFDFDF" stroke-width="2" stroke-linecap="round" stroke-linejoin="round"/>
<path d="M23.6833 41.9887H35.2389V23.2109H23.6833V41.9887Z" fill="#DFDFDF"/>
<path d="M23.6833 23.2109V19.4393C23.6833 18.7157 23.9877 18.0217 24.5295 17.5101C25.0713 16.9984 25.8061 16.7109 26.5722 16.7109H32.35C33.1162 16.7109 33.851 16.9984 34.3928 17.5101C34.9345 18.0217 35.2389 18.7157 35.2389 19.4393V23.2109M23.6833 23.2109V41.9887H35.2389V23.2109M23.6833 23.2109H35.2389" stroke="#DFDFDF" stroke-width="2" stroke-linecap="round" stroke-linejoin="round"/>
</g>
<defs>
<filter id="filter0_d_5505_34220" x="-11.25" y="-11" width="82" height="82" filterUnits="userSpaceOnUse" color-interpolation-filters="sRGB">
<feFlood flood-opacity="0" result="BackgroundImageFix"/>
<feColorMatrix in="SourceAlpha" type="matrix" values="0 0 0 0 0 0 0 0 0 0 0 0 0 0 0 0 0 0 127 0" result="hardAlpha"/>
<feOffset/>
<feGaussianBlur stdDeviation="7.5"/>
<feComposite in2="hardAlpha" operator="out"/>
<feColorMatrix type="matrix" values="0 0 0 0 1 0 0 0 0 0.580392 0 0 0 0 0 0 0 0 0.9 0"/>
<feBlend mode="normal" in2="BackgroundImageFix" result="effect1_dropShadow_5505_34220"/>
<feBlend mode="normal" in="SourceGraphic" in2="effect1_dropShadow_5505_34220" result="shape"/>
</filter>
</defs>
</svg>
