<svg width="53" height="52" viewBox="0 0 53 52" fill="none" xmlns="http://www.w3.org/2000/svg">
<path d="M35.25 19.875H17.25C16.0074 19.875 15 20.9143 15 22.1964V33.8036C15 35.0857 16.0074 36.125 17.25 36.125H35.25C36.4926 36.125 37.5 35.0857 37.5 33.8036V22.1964C37.5 20.9143 36.4926 19.875 35.25 19.875Z" stroke="#DFDFDF" stroke-width="2" stroke-linecap="round" stroke-linejoin="round"/>
<path d="M31.25 35.5V16.6111C31.25 15.9849 30.9866 15.3843 30.5178 14.9416C30.0489 14.4988 29.413 14.25 28.75 14.25H23.75C23.087 14.25 22.4511 14.4988 21.9822 14.9416C21.5134 15.3843 21.25 15.9849 21.25 16.6111V35.5" stroke="#DFDFDF" stroke-width="2" stroke-linecap="round" stroke-linejoin="round"/>
</svg>
