<svg width="40" height="41" viewBox="0 0 40 41" fill="none" xmlns="http://www.w3.org/2000/svg">
<path d="M32.7218 12.3499L21.9318 5.64994C21.3415 5.28136 20.6595 5.08594 19.9635 5.08594C19.2675 5.08594 18.5855 5.28136 17.9952 5.64994L7.20682 12.3883C6.5934 12.7751 6.10656 13.3329 5.80626 13.993C5.50597 14.6532 5.40536 15.3867 5.51682 16.1033L8.30015 32.8149C8.44727 33.6898 8.90247 34.4832 9.58349 35.0517C10.2645 35.6202 11.1264 35.9264 12.0135 35.9149H27.9835C28.8708 35.9268 29.7332 35.6208 30.4145 35.0523C31.0959 34.4837 31.5513 33.6901 31.6985 32.8149L34.4818 16.1033C34.5938 15.3735 34.4858 14.6269 34.1718 13.9588C33.8577 13.2906 33.3518 12.7311 32.7185 12.3516" stroke="white" stroke-width="1.875" stroke-linecap="round" stroke-linejoin="round"/>
<path d="M25.3971 17.4766L14.6055 28.2682M14.6055 17.4999L25.3971 28.2916" stroke="white" stroke-width="1.875" stroke-miterlimit="10" stroke-linecap="round"/>
</svg>
