<svg width="40" height="41" viewBox="0 0 40 41" fill="none" xmlns="http://www.w3.org/2000/svg">
<path fill-rule="evenodd" clip-rule="evenodd" d="M19.9987 2.58348C16.952 2.58348 14.4337 2.85182 12.4954 3.17848L12.272 3.21682C10.5887 3.49848 9.1887 3.73348 8.0937 5.08015C7.3937 5.94515 7.16536 6.88015 7.1137 7.92182L6.2937 8.19515C5.52203 8.45182 4.8437 8.67848 4.3087 8.92848C3.7287 9.19848 3.19703 9.54515 2.79036 10.1101C2.3837 10.6751 2.22203 11.2885 2.1487 11.9235C2.08203 12.5118 2.08203 13.2235 2.08203 14.0385V14.2801C2.08203 14.9501 2.08203 15.5418 2.13203 16.0368C2.18536 16.5718 2.3037 17.0935 2.5987 17.5968C2.89703 18.1018 3.2937 18.4585 3.73703 18.7652C4.14536 19.0485 4.66203 19.3368 5.2487 19.6618L9.6487 22.1068C10.5487 23.8752 11.7837 25.4518 13.482 26.5902C14.9604 27.5835 16.7354 28.2068 18.837 28.3718C18.7805 28.5193 18.7506 28.6756 18.7487 28.8335V31.7502H16.3654C15.6911 31.7502 15.0376 31.9838 14.5162 32.4114C13.9947 32.8389 13.6375 33.4339 13.5054 34.0952L13.1404 35.9168H9.9987C9.66718 35.9168 9.34923 36.0485 9.11481 36.2829C8.88039 36.5174 8.7487 36.8353 8.7487 37.1668C8.7487 37.4983 8.88039 37.8163 9.11481 38.0507C9.34923 38.2851 9.66718 38.4168 9.9987 38.4168H29.9987C30.3302 38.4168 30.6482 38.2851 30.8826 38.0507C31.117 37.8163 31.2487 37.4983 31.2487 37.1668C31.2487 36.8353 31.117 36.5174 30.8826 36.2829C30.6482 36.0485 30.3302 35.9168 29.9987 35.9168H26.857L26.492 34.0952C26.3599 33.4339 26.0027 32.8389 25.4812 32.4114C24.9598 31.9838 24.3063 31.7502 23.632 31.7502H21.2487V28.8335C21.2468 28.6756 21.2169 28.5193 21.1604 28.3718C23.262 28.2052 25.037 27.5835 26.5154 26.5918C28.2154 25.4518 29.4487 23.8752 30.3487 22.1068L34.7487 19.6618C35.3354 19.3368 35.852 19.0485 36.2604 18.7652C36.702 18.4585 37.1004 18.1018 37.397 17.5985C37.6937 17.0935 37.8137 16.5718 37.8654 16.0368C37.9154 15.5418 37.9154 14.9501 37.9154 14.2801V14.0385C37.9154 13.2252 37.9154 12.5118 37.8487 11.9235C37.7754 11.2885 37.6154 10.6735 37.207 10.1101C36.8004 9.54515 36.2687 9.19848 35.6904 8.92682C35.152 8.67682 34.4754 8.45182 33.7037 8.19515L32.8837 7.92182C32.8337 6.87848 32.6054 5.94515 31.9037 5.08015C30.8104 3.73182 29.4104 3.49682 27.727 3.21682L27.502 3.17848C25.0219 2.77096 22.512 2.57193 19.9987 2.58348ZM24.307 35.9168L24.0404 34.5852C24.0215 34.4907 23.9705 34.4058 23.8961 34.3447C23.8216 34.2836 23.7283 34.2502 23.632 34.2502H16.3654C16.2691 34.2502 16.1758 34.2836 16.1013 34.3447C16.0269 34.4058 15.9759 34.4907 15.957 34.5852L15.6904 35.9168H24.307ZM7.14536 10.5468L7.1687 10.5385C7.2887 13.0718 7.5737 15.8718 8.28703 18.4885L6.51036 17.5035C5.86203 17.1418 5.45536 16.9152 5.16203 16.7118C4.89203 16.5235 4.8037 16.4118 4.75536 16.3285C4.70536 16.2451 4.65203 16.1152 4.6187 15.7885C4.58425 15.2681 4.57201 14.7465 4.58203 14.2252V14.1035C4.58203 13.2051 4.5837 12.6368 4.63203 12.2068C4.6787 11.8102 4.75203 11.6618 4.8187 11.5718C4.8837 11.4802 5.00036 11.3635 5.36203 11.1951C5.75536 11.0118 6.29536 10.8318 7.14536 10.5468ZM32.8287 10.5368C32.7104 13.0702 32.4237 15.8701 31.712 18.4868L33.487 17.5018C34.1354 17.1402 34.542 16.9135 34.8354 16.7101C35.1054 16.5218 35.1937 16.4102 35.242 16.3268C35.292 16.2435 35.3454 16.1135 35.3787 15.7868C35.4137 15.4302 35.4154 14.9652 35.4154 14.2235V14.1018C35.4154 13.2035 35.4137 12.6351 35.3654 12.2051C35.3187 11.8085 35.2454 11.6602 35.1787 11.5702C35.1137 11.4785 34.997 11.3618 34.6354 11.1935C34.242 11.0101 33.702 10.8285 32.852 10.5435L32.8287 10.5368ZM12.912 5.64348C15.2546 5.26001 17.625 5.0727 19.9987 5.08348C22.8987 5.08348 25.277 5.33848 27.0854 5.64348C29.097 5.98348 29.5187 6.11015 29.9637 6.65682C30.4004 7.19348 30.442 7.70348 30.352 9.96182C30.202 13.7252 29.7054 17.7885 28.1687 20.8785C27.4087 22.4018 26.4154 23.6485 25.1237 24.5152C23.8387 25.3768 22.1804 25.9168 19.9987 25.9168C17.817 25.9168 16.1604 25.3768 14.8754 24.5152C13.582 23.6485 12.5887 22.4018 11.8304 20.8768C10.292 17.7885 9.79703 13.7268 9.64703 9.96015C9.55703 7.70348 9.59703 7.19348 10.0354 6.65682C10.4787 6.11015 10.9004 5.98348 12.912 5.64348Z" fill="white"/>
</svg>
