<svg width="45" height="45" viewBox="0 0 45 45" fill="none" xmlns="http://www.w3.org/2000/svg">
<path d="M25.2266 18.6894C25.3081 16.2523 27.6102 14.0628 30.4199 14.0628C31.5913 14.0628 32.6867 14.4847 33.522 14.929C34.3658 15.379 35.0689 15.9205 35.4852 16.3156C35.6192 16.4427 35.727 16.5949 35.8022 16.7636C35.8775 16.9323 35.9187 17.1141 35.9237 17.2988C35.9287 17.4834 35.8972 17.6672 35.8311 17.8397C35.7651 18.0122 35.6657 18.17 35.5386 18.304C35.4116 18.4381 35.2593 18.5458 35.0906 18.6211C34.922 18.6963 34.7401 18.7376 34.5555 18.7426C34.3708 18.7475 34.187 18.7161 34.0145 18.65C33.842 18.5839 33.6842 18.4845 33.5502 18.3575C33.1402 17.9874 32.6863 17.6691 32.1988 17.4097C31.5744 17.0764 30.9486 16.8753 30.4199 16.8753C28.9756 16.8753 28.0644 18.0073 28.0391 18.7836C28.0222 19.2617 28.1938 19.6569 28.6888 20.0703C29.2386 20.5273 30.1484 20.9562 31.4703 21.3247C33.2802 21.8267 34.6695 22.7787 35.3825 24.1315C36.111 25.5139 36.0013 27.0594 35.2981 28.4108C34.9346 29.1165 34.4034 29.7222 33.7513 30.1748C33.0991 30.6274 32.3458 30.9131 31.5575 31.0067C29.7758 31.2303 27.7395 30.5694 25.5613 28.872C25.4156 28.7584 25.2936 28.6173 25.2025 28.4566C25.1113 28.2959 25.0527 28.1188 25.03 27.9355C25.0073 27.7522 25.0209 27.5661 25.0701 27.3881C25.1192 27.21 25.203 27.0433 25.3166 26.8976C25.4301 26.7519 25.5713 26.63 25.732 26.5389C25.8927 26.4477 26.0697 26.3891 26.2531 26.3664C26.4364 26.3437 26.6224 26.3573 26.8005 26.4064C26.9786 26.4556 27.1452 26.5394 27.2909 26.653C29.105 28.069 30.41 28.3151 31.2074 28.2153C31.5436 28.1785 31.8655 28.0585 32.1439 27.8663C32.4223 27.6741 32.6484 27.4156 32.802 27.1142C33.1508 26.4434 33.1255 25.8809 32.8949 25.4436C32.6502 24.9795 32.037 24.4001 30.718 24.0345C29.2386 23.6225 27.8858 23.06 26.8888 22.2317C25.8383 21.357 25.1788 20.1715 25.228 18.6908M9.94907 14.1795C10.2967 14.0446 10.6836 14.0532 11.0249 14.2035C11.3661 14.3538 11.6337 14.6335 11.7688 14.9811L15.7752 25.3044C15.8314 25.4534 16.0424 25.4548 16.1014 25.3072L20.2949 14.9628C20.361 14.7873 20.4617 14.6268 20.5908 14.4908C20.7199 14.3548 20.875 14.2459 21.0468 14.1707C21.2186 14.0955 21.4038 14.0554 21.5913 14.0529C21.7789 14.0503 21.965 14.0853 22.1389 14.1557C22.3127 14.2262 22.4707 14.3307 22.6035 14.4631C22.7363 14.5955 22.8413 14.7532 22.9123 14.9268C22.9833 15.1004 23.0188 15.2865 23.0168 15.474C23.0148 15.6616 22.9753 15.8468 22.9006 16.0189L17.2095 30.0603C17.1037 30.3214 16.9218 30.5447 16.6876 30.7012C16.4533 30.8577 16.1775 30.9402 15.8957 30.9381C15.614 30.936 15.3394 30.8493 15.1076 30.6893C14.8757 30.5292 14.6972 30.3033 14.5953 30.0406L9.1461 15.9992C9.01116 15.6516 9.01979 15.2646 9.1701 14.9234C9.32042 14.5821 9.60011 14.3146 9.94767 14.1795" fill="white"/>
<path d="M8.4375 1.40625C7.51414 1.40625 6.59983 1.58812 5.74676 1.94147C4.89369 2.29483 4.11857 2.81274 3.46566 3.46566C2.14704 4.78427 1.40625 6.5727 1.40625 8.4375V36.5625C1.40625 38.4273 2.14704 40.2157 3.46566 41.5343C4.11857 42.1873 4.89369 42.7052 5.74676 43.0585C6.59983 43.4119 7.51414 43.5938 8.4375 43.5938H36.5625C38.4273 43.5938 40.2157 42.853 41.5343 41.5343C42.853 40.2157 43.5938 38.4273 43.5938 36.5625V8.4375C43.5938 7.51414 43.4119 6.59983 43.0585 5.74676C42.7052 4.89369 42.1873 4.11857 41.5343 3.46566C40.8814 2.81274 40.1063 2.29483 39.2532 1.94147C38.4002 1.58812 37.4859 1.40625 36.5625 1.40625H8.4375ZM4.21875 8.4375C4.21875 7.31862 4.66322 6.24556 5.45439 5.45439C6.24556 4.66322 7.31862 4.21875 8.4375 4.21875H36.5625C37.6814 4.21875 38.7544 4.66322 39.5456 5.45439C40.3368 6.24556 40.7812 7.31862 40.7812 8.4375V36.5625C40.7812 37.6814 40.3368 38.7544 39.5456 39.5456C38.7544 40.3368 37.6814 40.7812 36.5625 40.7812H8.4375C7.31862 40.7812 6.24556 40.3368 5.45439 39.5456C4.66322 38.7544 4.21875 37.6814 4.21875 36.5625V8.4375Z" fill="white"/>
</svg>
