<svg width="35" height="36" viewBox="0 0 35 36" fill="none" xmlns="http://www.w3.org/2000/svg">
<path d="M29.168 17.9993C29.168 21.0935 27.9388 24.061 25.7509 26.2489C23.563 28.4369 20.5955 29.666 17.5013 29.666C14.4071 29.666 11.4396 28.4369 9.25172 26.2489C7.0638 24.061 5.83464 21.0935 5.83464 17.9993C5.83464 14.9052 7.0638 11.9377 9.25172 9.74977C11.4396 7.56185 14.4071 6.33268 17.5013 6.33268C20.5955 6.33268 23.563 7.56185 25.7509 9.74977C27.9388 11.9377 29.168 14.9052 29.168 17.9993ZM17.5013 32.5827C25.5557 32.5827 32.0846 26.0537 32.0846 17.9993C32.0846 9.94497 25.5557 3.41602 17.5013 3.41602C9.44693 3.41602 2.91797 9.94497 2.91797 17.9993C2.91797 26.0537 9.44693 32.5827 17.5013 32.5827ZM18.0234 14.1814C16.6059 14.7716 13.7714 15.9932 9.51984 17.8462C8.82859 18.1204 8.46693 18.3887 8.43484 18.6512C8.37943 19.0946 8.93505 19.2696 9.69193 19.5073L10.0098 19.6094C10.7536 19.8514 11.7569 20.1343 12.2776 20.146C12.7501 20.1557 13.277 19.9613 13.8584 19.5627C17.8309 16.8793 19.8813 15.5236 20.0096 15.4954C20.1015 15.475 20.2269 15.4487 20.3115 15.5246C20.3976 15.6004 20.3888 15.7433 20.3801 15.7827C20.3246 16.0175 18.143 18.046 17.0142 19.0946C16.6798 19.4096 16.3478 19.727 16.0182 20.0469C15.3269 20.7133 14.8078 21.2135 16.0473 22.0302C17.303 22.8585 18.5703 23.6839 19.7953 24.5575C20.399 24.9891 20.9415 25.3741 21.6123 25.3144C22.0017 25.2779 22.4042 24.9118 22.6084 23.8181C23.0926 21.2368 24.0419 15.6398 24.2607 13.3327C24.2734 13.1413 24.2651 12.9491 24.2359 12.7596C24.2186 12.607 24.1447 12.4665 24.0288 12.3658C23.8538 12.2229 23.584 12.1937 23.4644 12.1952C22.9161 12.2054 22.0746 12.4971 18.0248 14.1814" fill="white"/>
</svg>
