<svg width="25" height="25" viewBox="0 0 25 25" fill="none" xmlns="http://www.w3.org/2000/svg">
<path d="M3.19037 7.82308C4.05742 6.09759 5.38705 4.6471 7.03078 3.63356C8.67451 2.62003 10.5676 2.08336 12.4987 2.0835C15.306 2.0835 17.6643 3.11579 19.4674 4.79704L16.481 7.78454C15.4008 6.75225 14.0279 6.2262 12.4987 6.2262C9.78516 6.2262 7.48828 8.05954 6.67057 10.521C6.46224 11.146 6.34349 11.8127 6.34349 12.5002C6.34349 13.1877 6.46224 13.8543 6.67057 14.4793C7.48932 16.9418 9.78516 18.7741 12.4987 18.7741C13.8997 18.7741 15.0924 18.4043 16.0258 17.7793C16.5669 17.4231 17.0301 16.9608 17.3875 16.4205C17.7448 15.8801 17.9889 15.2729 18.1049 14.6356H12.4987V10.6064H22.3091C22.432 11.2877 22.4987 11.9981 22.4987 12.7366C22.4987 15.9095 21.3633 18.5804 19.3924 20.3929C17.6695 21.9845 15.3112 22.9168 12.4987 22.9168C11.1306 22.9174 9.77582 22.6483 8.51177 22.125C7.24771 21.6017 6.09917 20.8345 5.13178 19.8671C4.1644 18.8997 3.39713 17.7512 2.87384 16.4871C2.35055 15.223 2.08148 13.8683 2.08203 12.5002C2.08203 10.8189 2.48412 9.22933 3.19037 7.82308Z" fill="white"/>
</svg>
