<svg width="61" height="60" viewBox="0 0 61 60" fill="none" xmlns="http://www.w3.org/2000/svg">
<path d="M6.99037 43.5349C6.04888 44.4724 5.51982 45.7439 5.51953 47.0699V52.4999C5.51953 53.163 5.78397 53.7988 6.25468 54.2677C6.72539 54.7365 7.36381 54.9999 8.02949 54.9999H15.5594C16.2251 54.9999 16.8635 54.7365 17.3342 54.2677C17.8049 53.7988 18.0693 53.163 18.0693 52.4999V49.9999C18.0693 49.3369 18.3338 48.701 18.8045 48.2321C19.2752 47.7633 19.9136 47.4999 20.5793 47.4999H23.0893C23.7549 47.4999 24.3934 47.2365 24.8641 46.7677C25.3348 46.2988 25.5992 45.663 25.5992 44.9999V42.4999C25.5992 41.8369 25.8637 41.201 26.3344 40.7321C26.8051 40.2633 27.4435 39.9999 28.1092 39.9999H28.5409C29.8721 39.9996 31.1488 39.4727 32.09 38.5349L34.1331 36.4999C37.6215 37.7103 41.4191 37.7056 44.9045 36.4868C48.39 35.2679 51.357 32.907 53.3201 29.7902C55.2833 26.6734 56.1264 22.9853 55.7115 19.3293C55.2966 15.6732 53.6483 12.2655 51.0362 9.66384C48.4242 7.06213 45.003 5.42037 41.3323 5.00714C37.6616 4.5939 33.9588 5.43365 30.8297 7.38902C27.7005 9.34438 25.3301 12.2996 24.1064 15.7712C22.8827 19.2428 22.8781 23.0253 24.0932 26.4999L6.99037 43.5349Z" stroke="white" stroke-width="2.5" stroke-linecap="round" stroke-linejoin="round"/>
<path d="M41.9151 20C42.6082 20 43.1701 19.4404 43.1701 18.75C43.1701 18.0596 42.6082 17.5 41.9151 17.5C41.222 17.5 40.6602 18.0596 40.6602 18.75C40.6602 19.4404 41.222 20 41.9151 20Z" fill="white" stroke="white" stroke-width="2.5" stroke-linecap="round" stroke-linejoin="round"/>
</svg>
