<svg width="35" height="36" viewBox="0 0 35 36" fill="none" xmlns="http://www.w3.org/2000/svg">
<path d="M17.5013 2.32227C13.3441 2.3242 9.35767 3.97651 6.41806 6.91611C3.47846 9.85572 1.82615 13.8421 1.82422 17.9993V18.6629L9.69193 21.5431C10.2165 21.0565 10.8525 20.706 11.544 20.5223C11.9712 20.4051 12.4138 20.3534 12.8565 20.3691C13.0618 20.3826 13.2663 20.407 13.469 20.4421L18.2305 13.7118C18.227 12.4851 18.6291 11.2917 19.3742 10.3171C20.1193 9.3426 21.1656 8.64164 22.3503 8.32331C22.8871 8.17915 23.4428 8.11768 23.9982 8.14102C25.3383 8.17734 26.6201 8.69695 27.6072 9.60404C28.5943 10.5111 29.2202 11.7445 29.3694 13.0768C29.5186 14.4091 29.1811 15.7504 28.4191 16.8533C27.6571 17.9563 26.522 18.7466 25.2232 19.0785C24.7475 19.2046 24.2569 19.2659 23.7648 19.2608L17.0419 24.015C17.2271 25.1293 16.9784 26.2723 16.3469 27.209C15.7155 28.1457 14.7493 28.805 13.6469 29.0515C12.5445 29.2979 11.3895 29.1128 10.4193 28.5341C9.44916 27.9554 8.73746 27.0271 8.43047 25.94C8.38019 25.7434 8.34365 25.5437 8.32109 25.3421L2.75755 23.2931C3.72825 25.9933 5.42172 28.3751 7.65328 30.1788C9.88485 31.9825 12.5688 33.1388 15.4125 33.5217C18.2562 33.9046 21.1505 33.4993 23.7796 32.3501C26.4088 31.2008 28.6719 29.3517 30.3222 27.0044C31.9725 24.6571 32.9466 21.9017 33.1382 19.0388C33.3299 16.1758 32.7318 13.3152 31.4091 10.7689C30.0865 8.22256 28.09 6.08829 25.6375 4.59882C23.185 3.10935 20.3707 2.32187 17.5013 2.32227ZM24.0128 8.1556C23.4574 8.13226 22.9017 8.19373 22.3648 8.33789C20.9427 8.72073 19.7303 9.65185 18.9936 10.9271C18.2569 12.2024 18.0559 13.7178 18.4346 15.141C18.8175 16.5643 19.7502 17.7773 21.0274 18.513C22.3046 19.2486 23.8217 19.4468 25.2451 19.0639C26.6684 18.681 27.8813 17.7484 28.617 16.4712C29.3527 15.194 29.5509 13.6768 29.168 12.2535C28.8636 11.1057 28.1981 10.0861 27.2698 9.34559C26.3415 8.60503 25.1996 8.18271 24.0128 8.14102V8.1556ZM12.7034 20.3691C11.5397 20.3691 10.4231 20.8289 9.59683 21.6483C8.77056 22.4678 8.30154 23.5805 8.29193 24.7441C8.30154 25.9078 8.77056 27.0205 9.59683 27.84C10.4231 28.6594 11.5397 29.1192 12.7034 29.1191C13.8684 29.1211 14.9868 28.6622 15.8146 27.8425C16.6425 27.0229 17.1125 25.9091 17.1221 24.7441C17.1231 24.1642 17.0097 23.5898 16.7884 23.0537C16.5672 22.5176 16.2424 22.0305 15.8326 21.6201C15.4229 21.2096 14.9363 20.884 14.4006 20.6619C13.8649 20.4397 13.2906 20.3254 12.7107 20.3254L12.7034 20.3691Z" stroke="white" stroke-width="2" stroke-linecap="round" stroke-linejoin="round"/>
</svg>
