<svg width="35" height="36" viewBox="0 0 35 36" fill="none" xmlns="http://www.w3.org/2000/svg">
<path d="M22.9587 20.2319C22.5327 19.7706 22.054 19.3609 21.5324 19.0113C23.6352 17.3861 25.1088 15.0816 25.7018 12.4911C25.7464 12.3036 25.7534 12.1092 25.7224 11.919C25.6913 11.7288 25.6229 11.5467 25.5211 11.3831C25.4193 11.2195 25.2861 11.0778 25.1291 10.966C24.9722 10.8542 24.7947 10.7746 24.6068 10.7318C24.4189 10.689 24.2244 10.6839 24.0346 10.7167C23.8447 10.7496 23.6632 10.8197 23.5006 10.9231C23.338 11.0264 23.1975 11.161 23.0872 11.319C22.9769 11.477 22.8991 11.6553 22.8581 11.8436C22.5821 13.0555 22.045 14.1927 21.2844 15.1757C20.5237 16.1588 19.5578 16.9641 18.4539 17.5354V12.1702C18.4442 12.0632 18.4227 11.9576 18.3897 11.8552C18.38 11.7708 18.3629 11.6873 18.3387 11.6059C18.2764 11.4728 18.1942 11.3498 18.0952 11.2413C18.0689 11.2121 18.0558 11.1713 18.0281 11.1421C17.9213 11.0435 17.8004 10.9614 17.6693 10.8986C17.6314 10.8782 17.6037 10.8446 17.5643 10.8286C17.4529 10.791 17.3373 10.767 17.2202 10.7571C17.1476 10.7363 17.0734 10.7212 16.9985 10.7119L16.0447 10.709H16.0404C15.6987 10.7066 15.3671 10.8248 15.1041 11.0428C14.841 11.2609 14.6634 11.5648 14.6024 11.9009C14.5414 12.2371 14.601 12.584 14.7706 12.8806C14.9403 13.1772 15.2092 13.4043 15.5299 13.5221V20.6534C13.2184 18.255 11.688 15.2124 11.1404 11.9267C11.0758 11.5453 10.8623 11.2053 10.547 10.9813C10.2317 10.7573 9.84027 10.6677 9.45891 10.7323C9.07755 10.7969 8.73747 11.0104 8.51348 11.3257C8.28949 11.641 8.19994 12.0324 8.26453 12.4138C9.11608 17.493 11.9483 22.0267 16.1395 25.0196C16.1994 25.0551 16.2618 25.0863 16.3262 25.1129C16.3771 25.1423 16.4297 25.1686 16.4837 25.1917C16.6462 25.2566 16.8191 25.2916 16.9941 25.2952C17.2087 25.2917 17.4198 25.241 17.6124 25.1465C17.627 25.1392 17.6431 25.1436 17.6577 25.1363C17.7865 25.0687 17.9044 24.9821 18.0077 24.8796C18.0295 24.8592 18.0427 24.8359 18.0631 24.814C18.157 24.7106 18.2356 24.5942 18.2964 24.4684C18.3164 24.4269 18.3344 24.3846 18.3504 24.3415C18.414 24.1807 18.4486 24.0098 18.4524 23.8369V20.7365C19.3568 21.0014 20.1716 21.5082 20.8091 22.2021L23.211 24.8227C23.4725 25.1078 23.8364 25.2773 24.2229 25.294C24.6093 25.3107 24.9866 25.1732 25.2716 24.9117C25.5567 24.6502 25.7262 24.2862 25.7429 23.8998C25.7595 23.5134 25.622 23.1361 25.3606 22.8511L22.9587 20.2319ZM21.9802 1.95898H13.0333C4.05287 1.95898 1.45703 4.5519 1.45703 13.5192V22.4675C1.45703 31.4465 4.04995 34.0423 13.0172 34.0423H21.9656C30.9445 34.0423 33.5404 31.4494 33.5404 22.4821V13.5352C33.5404 4.55482 30.9475 1.95898 21.9802 1.95898ZM30.6237 22.4821C30.6237 29.8321 29.3287 31.1257 21.9656 31.1257H13.0172C5.66724 31.1257 4.3737 29.8307 4.3737 22.4675V13.5192C4.3737 6.16919 5.6687 4.87565 13.0333 4.87565H21.9802C29.3302 4.87565 30.6237 6.17065 30.6237 13.5352V22.4821Z" fill="white"/>
</svg>
