<svg width="61" height="60" viewBox="0 0 61 60" fill="none" xmlns="http://www.w3.org/2000/svg">
<path d="M52.1 16.5H8.9C5.91766 16.5 3.5 18.9944 3.5 22.0714V49.9286C3.5 53.0056 5.91766 55.5 8.9 55.5H52.1C55.0823 55.5 57.5 53.0056 57.5 49.9286V22.0714C57.5 18.9944 55.0823 16.5 52.1 16.5Z" stroke="white" stroke-width="2" stroke-linecap="round" stroke-linejoin="round"/>
<path d="M42.5 54V9.55556C42.5 8.08213 41.8679 6.66905 40.7426 5.62718C39.6174 4.58532 38.0913 4 36.5 4H24.5C22.9087 4 21.3826 4.58532 20.2574 5.62718C19.1321 6.66905 18.5 8.08213 18.5 9.55556V54" stroke="white" stroke-width="2" stroke-linecap="round" stroke-linejoin="round"/>
</svg>
