<svg width="31" height="31" viewBox="0 0 31 31" fill="none" xmlns="http://www.w3.org/2000/svg">
<path fill-rule="evenodd" clip-rule="evenodd" d="M21.5655 9.20728C22.522 10.1499 23.2531 11.2966 23.704 12.5616C24.1549 13.8266 24.3141 15.1771 24.1695 16.5123C24.1278 16.9081 24.2449 17.3043 24.4953 17.6138C24.7457 17.9232 25.1087 18.1205 25.5045 18.1623C25.9004 18.2041 26.2966 18.0869 26.606 17.8365C26.9155 17.5862 27.1128 17.2231 27.1545 16.8273C27.3461 15.0438 27.1324 13.2401 26.5293 11.5508C25.9262 9.86146 24.9493 8.3302 23.6715 7.07129C18.9675 2.43329 11.3865 2.51128 6.73803 7.22428C2.08953 11.9373 2.11653 19.5213 6.81903 24.1593C8.99579 26.3107 11.9189 27.5391 14.979 27.5883C16.1355 27.6091 17.289 27.4626 18.4035 27.1533C18.5978 27.1048 18.7803 27.018 18.9405 26.8979C19.1007 26.7778 19.2351 26.6268 19.336 26.4539C19.4369 26.281 19.5022 26.0897 19.528 25.8911C19.5538 25.6926 19.5396 25.4909 19.4862 25.298C19.4329 25.1051 19.3414 24.9247 19.2173 24.7677C19.0931 24.6106 18.9388 24.48 18.7634 24.3836C18.588 24.2871 18.395 24.2267 18.1959 24.2059C17.9968 24.1852 17.7956 24.2045 17.604 24.2628C16.7672 24.4947 15.9012 24.6044 15.033 24.5883C12.7429 24.5528 10.5551 23.6338 8.92653 22.0233C5.41203 18.5583 5.37903 12.8748 8.87403 9.33179C12.369 5.78878 18.0525 5.74228 21.5655 9.20728Z" fill="#FF38E5"/>
<path fill-rule="evenodd" clip-rule="evenodd" d="M24.5493 18.0427C24.6803 18.1898 24.839 18.3098 25.0163 18.3956C25.1937 18.4814 25.3862 18.5315 25.5828 18.5429C25.7795 18.5543 25.9765 18.5269 26.1626 18.4622C26.3487 18.3974 26.5202 18.2967 26.6673 18.1657L29.2473 15.8707C29.5445 15.6061 29.7244 15.2344 29.7475 14.8372C29.7705 14.4399 29.6349 14.0499 29.3703 13.7527C29.1058 13.4555 28.734 13.2756 28.3368 13.2525C27.9396 13.2295 27.5495 13.3651 27.2523 13.6297L24.6723 15.9247C24.5252 16.0557 24.4052 16.2143 24.3194 16.3917C24.2336 16.569 24.1835 16.7615 24.1721 16.9582C24.1607 17.1549 24.1881 17.3519 24.2528 17.538C24.3176 17.724 24.4183 17.8955 24.5493 18.0427Z" fill="#FF38E5"/>
<path fill-rule="evenodd" clip-rule="evenodd" d="M26.868 17.9C26.7498 18.0576 26.6017 18.1904 26.4322 18.2907C26.2627 18.3911 26.0751 18.4571 25.8801 18.4849C25.6851 18.5128 25.4865 18.502 25.2957 18.4531C25.1049 18.4042 24.9256 18.3182 24.768 18.2L21.768 15.95C21.4497 15.7113 21.2393 15.356 21.183 14.9621C21.1268 14.5683 21.2293 14.1683 21.468 13.85C21.7067 13.5317 22.062 13.3213 22.4558 13.2651C22.8497 13.2088 23.2497 13.3113 23.568 13.55L26.568 15.8C26.7256 15.9182 26.8583 16.0663 26.9587 16.2358C27.059 16.4053 27.125 16.5929 27.1529 16.7879C27.1808 16.9829 27.1699 17.1815 27.121 17.3723C27.0722 17.5631 26.9862 17.7424 26.868 17.9ZM15.498 9.5C15.1001 9.5 14.7186 9.65804 14.4373 9.93934C14.156 10.2206 13.998 10.6022 13.998 11V16.25C13.998 16.6478 14.156 17.0294 14.4373 17.3107C14.7186 17.592 15.1001 17.75 15.498 17.75C15.8958 17.75 16.2773 17.592 16.5586 17.3107C16.8399 17.0294 16.998 16.6478 16.998 16.25V11C16.998 10.6022 16.8399 10.2206 16.5586 9.93934C16.2773 9.65804 15.8958 9.5 15.498 9.5Z" fill="#FF38E5"/>
<path fill-rule="evenodd" clip-rule="evenodd" d="M9.5 16.25C9.5 16.6478 9.65804 17.0294 9.93934 17.3107C10.2206 17.592 10.6022 17.75 11 17.75H15.5C15.8978 17.75 16.2794 17.592 16.5607 17.3107C16.842 17.0294 17 16.6478 17 16.25C17 15.8522 16.842 15.4706 16.5607 15.1893C16.2794 14.908 15.8978 14.75 15.5 14.75H11C10.6022 14.75 10.2206 14.908 9.93934 15.1893C9.65804 15.4706 9.5 15.8522 9.5 16.25Z" fill="#FF38E5"/>
</svg>
