<svg width="30" height="31" viewBox="0 0 30 31" fill="none" xmlns="http://www.w3.org/2000/svg">
<path fill-rule="evenodd" clip-rule="evenodd" d="M21.0655 9.20728C22.022 10.1499 22.7531 11.2966 23.204 12.5616C23.6549 13.8266 23.8141 15.1771 23.6695 16.5123C23.6278 16.9081 23.7449 17.3043 23.9953 17.6138C24.2457 17.9232 24.6087 18.1205 25.0045 18.1623C25.4004 18.2041 25.7966 18.0869 26.106 17.8365C26.4155 17.5862 26.6128 17.2231 26.6545 16.8273C26.8461 15.0438 26.6324 13.2401 26.0293 11.5508C25.4262 9.86146 24.4493 8.3302 23.1715 7.07129C18.4675 2.43329 10.8865 2.51128 6.23803 7.22428C1.58953 11.9373 1.61653 19.5213 6.31903 24.1593C8.49579 26.3107 11.4189 27.5391 14.479 27.5883C15.6355 27.6091 16.789 27.4626 17.9035 27.1533C18.0978 27.1048 18.2803 27.018 18.4405 26.8979C18.6007 26.7778 18.7351 26.6268 18.836 26.4539C18.9369 26.281 19.0022 26.0897 19.028 25.8911C19.0538 25.6926 19.0396 25.4909 18.9862 25.298C18.9329 25.1051 18.8414 24.9247 18.7173 24.7677C18.5931 24.6106 18.4388 24.48 18.2634 24.3836C18.088 24.2871 17.895 24.2267 17.6959 24.2059C17.4968 24.1852 17.2956 24.2045 17.104 24.2628C16.2672 24.4947 15.4012 24.6044 14.533 24.5883C12.2429 24.5528 10.0551 23.6338 8.42653 22.0233C4.91203 18.5583 4.87903 12.8748 8.37403 9.33179C11.869 5.78878 17.5525 5.74228 21.0655 9.20728Z" fill="#C187FF"/>
<path fill-rule="evenodd" clip-rule="evenodd" d="M24.0493 18.0427C24.1803 18.1898 24.339 18.3098 24.5163 18.3956C24.6937 18.4814 24.8862 18.5315 25.0828 18.5429C25.2795 18.5543 25.4765 18.5269 25.6626 18.4622C25.8487 18.3974 26.0202 18.2967 26.1673 18.1657L28.7473 15.8707C29.0445 15.6061 29.2244 15.2344 29.2475 14.8372C29.2705 14.4399 29.1349 14.0499 28.8703 13.7527C28.6058 13.4555 28.234 13.2756 27.8368 13.2525C27.4396 13.2295 27.0495 13.3651 26.7523 13.6297L24.1723 15.9247C24.0252 16.0557 23.9052 16.2143 23.8194 16.3917C23.7336 16.569 23.6835 16.7615 23.6721 16.9582C23.6607 17.1549 23.6881 17.3519 23.7528 17.538C23.8176 17.724 23.9183 17.8955 24.0493 18.0427Z" fill="#C187FF"/>
<path fill-rule="evenodd" clip-rule="evenodd" d="M26.368 17.9C26.2498 18.0576 26.1017 18.1904 25.9322 18.2907C25.7627 18.3911 25.5751 18.4571 25.3801 18.4849C25.1851 18.5128 24.9865 18.502 24.7957 18.4531C24.6049 18.4042 24.4256 18.3182 24.268 18.2L21.268 15.95C20.9497 15.7113 20.7393 15.356 20.683 14.9621C20.6268 14.5683 20.7293 14.1683 20.968 13.85C21.2067 13.5317 21.562 13.3213 21.9558 13.2651C22.3497 13.2088 22.7497 13.3113 23.068 13.55L26.068 15.8C26.2256 15.9182 26.3583 16.0663 26.4587 16.2358C26.559 16.4053 26.625 16.5929 26.6529 16.7879C26.6808 16.9829 26.6699 17.1815 26.621 17.3723C26.5722 17.5631 26.4862 17.7424 26.368 17.9ZM14.998 9.5C14.6001 9.5 14.2186 9.65804 13.9373 9.93934C13.656 10.2206 13.498 10.6022 13.498 11V16.25C13.498 16.6478 13.656 17.0294 13.9373 17.3107C14.2186 17.592 14.6001 17.75 14.998 17.75C15.3958 17.75 15.7773 17.592 16.0586 17.3107C16.3399 17.0294 16.498 16.6478 16.498 16.25V11C16.498 10.6022 16.3399 10.2206 16.0586 9.93934C15.7773 9.65804 15.3958 9.5 14.998 9.5Z" fill="#C187FF"/>
<path fill-rule="evenodd" clip-rule="evenodd" d="M9 16.25C9 16.6478 9.15804 17.0294 9.43934 17.3107C9.72064 17.592 10.1022 17.75 10.5 17.75H15C15.3978 17.75 15.7794 17.592 16.0607 17.3107C16.342 17.0294 16.5 16.6478 16.5 16.25C16.5 15.8522 16.342 15.4706 16.0607 15.1893C15.7794 14.908 15.3978 14.75 15 14.75H10.5C10.1022 14.75 9.72064 14.908 9.43934 15.1893C9.15804 15.4706 9 15.8522 9 16.25Z" fill="#C187FF"/>
</svg>
