<svg width="206" height="115" viewBox="0 0 206 115" fill="none" xmlns="http://www.w3.org/2000/svg">
<g clip-path="url(#clip0_4809_33776)">
<path d="M101.809 51.2797L123.048 51.1634C121.023 62.2269 116.815 72.7745 110.67 82.1881C104.525 91.6017 96.5658 99.6922 87.2595 105.985L75.6557 88.7744C88.7047 79.9487 98.0231 66.5893 101.809 51.2797ZM184.582 75.3146L182.761 76.5249C181.911 77.0889 180.959 77.4797 179.958 77.6748C178.958 77.8699 177.929 77.8656 176.93 77.662C175.931 77.4585 174.982 77.0597 174.137 76.4885C173.292 75.9173 172.568 75.1849 172.006 74.3331L162.825 60.4406C162.351 59.7237 161.706 59.1363 160.949 58.7314C160.191 58.3265 159.345 58.1169 158.487 58.1214L139.107 58.2277C137.452 58.2368 135.862 57.5873 134.686 56.422C133.51 55.2567 132.844 53.6711 132.835 52.014L132.792 44.072L96.5814 44.2707L96.4553 21.1989L112.7 21.1095C112.702 20.1481 113.084 19.2268 113.762 18.5461C114.44 17.8655 115.358 17.4806 116.318 17.4753C117.278 17.47 118.201 17.8448 118.886 18.518C119.571 19.1912 119.963 20.1083 119.976 21.0696L119.991 23.8981L170.376 23.6211L176.975 30.1643L176.874 45.4448C171.474 47.9584 173.644 50.0249 177.277 55.5247L185.933 68.6265C186.283 69.155 186.525 69.7473 186.647 70.3697C186.768 70.9921 186.766 71.6323 186.64 72.2538C186.514 72.8753 186.267 73.4658 185.913 73.9917C185.56 74.5176 185.106 74.9685 184.578 75.3187L184.582 75.3146ZM158.356 47.8986C158.351 46.9355 157.964 46.0139 157.28 45.3366C156.597 44.6593 155.673 44.2818 154.711 44.287L144.545 44.3428C143.584 44.3482 142.664 44.7358 141.988 45.4205C141.312 46.1052 140.935 47.0309 140.94 47.9939L140.96 51.6473C140.965 52.6104 141.352 53.5319 142.036 54.2092C142.72 54.8865 143.644 55.2641 144.605 55.2588L154.784 55.2029C155.746 55.1976 156.665 54.8099 157.341 54.1252C158.017 53.4406 158.394 52.5149 158.389 51.5519L158.369 47.9028L158.356 47.8986ZM89.5333 28.0187C89.5302 27.8101 89.5099 27.6021 89.4725 27.3968C89.2661 26.4075 88.7176 25.5229 87.9236 24.8992C87.1297 24.2755 86.1414 23.9527 85.133 23.9877L43.531 24.216C41.1131 24.2293 39.1628 26.0534 39.1754 28.2948L39.2436 40.7685C39.255 42.904 41.0529 44.6634 43.3531 44.7922L84.9595 47.1187C87.2554 47.2473 89.2201 45.7098 89.5481 43.6694C89.5833 43.4638 89.6013 43.2556 89.6021 43.047L89.52 28.023L89.5333 28.0187ZM6.51185 32.732L6.55503 40.6743L13.5639 39.1974L32.2132 39.095L32.1855 34.0254L13.5316 34.1277L6.51185 32.732ZM28.4199 22.8471C28.4169 22.3358 28.2113 21.8466 27.8485 21.4871C27.4856 21.1275 26.995 20.927 26.4846 20.9296L24.758 20.9394C24.2475 20.9423 23.7591 21.1482 23.4001 21.5117C23.0411 21.8753 22.841 22.3668 22.8436 22.8782L22.8772 29.0548L28.4536 29.0244L28.4199 22.8471Z" fill="white" fill-opacity="0.8"/>
</g>
<defs>
<clipPath id="clip0_4809_33776">
<rect width="205" height="115" fill="white" transform="matrix(-1 0 0 1 205.5 0)"/>
</clipPath>
</defs>
</svg>
