<svg width="52" height="49" viewBox="0 0 52 49" fill="none" xmlns="http://www.w3.org/2000/svg">
<g clip-path="url(#clip0_4775_10958)">
<g filter="url(#filter0_di_4775_10958)">
<path d="M25.5 40C16.9394 40 10 33.1949 10 24.8V23.6923C10.6275 15.3641 17.6768 8.66667 25.5 0C33.6684 9.04615 41 15.8974 41 24.8C41 33.1949 34.0606 40 25.5 40ZM35.9588 24.7897C35.9588 19.1251 31.2764 14.5333 25.5 14.5333C19.7236 14.5333 15.0412 19.1251 15.0412 24.7897C15.0412 30.4544 19.7236 35.0462 25.5 35.0462C31.2764 35.0462 35.9588 30.4544 35.9588 24.7897Z" fill="#36343B"/>
<path d="M35.9588 24.7897C35.9588 19.1251 31.2764 14.5333 25.5 14.5333C19.7236 14.5333 15.0412 19.1251 15.0412 24.7897C15.0412 30.4544 19.7236 35.0462 25.5 35.0462C31.2764 35.0462 35.9588 30.4544 35.9588 24.7897Z" fill="#36343B"/>
</g>
<g filter="url(#filter1_ddi_4775_10958)">
<circle cx="10" cy="10" r="10" transform="matrix(1 0 0 -1 16 35)" fill="url(#paint0_radial_4775_10958)" shape-rendering="crispEdges"/>
</g>
</g>
<defs>
<filter id="filter0_di_4775_10958" x="2" y="-8" width="55" height="64" filterUnits="userSpaceOnUse" color-interpolation-filters="sRGB">
<feFlood flood-opacity="0" result="BackgroundImageFix"/>
<feColorMatrix in="SourceAlpha" type="matrix" values="0 0 0 0 0 0 0 0 0 0 0 0 0 0 0 0 0 0 127 0" result="hardAlpha"/>
<feOffset dx="4" dy="4"/>
<feGaussianBlur stdDeviation="6"/>
<feComposite in2="hardAlpha" operator="out"/>
<feColorMatrix type="matrix" values="0 0 0 0 0.293269 0 0 0 0 0.293269 0 0 0 0 0.293269 0 0 0 0.2 0"/>
<feBlend mode="normal" in2="BackgroundImageFix" result="effect1_dropShadow_4775_10958"/>
<feBlend mode="normal" in="SourceGraphic" in2="effect1_dropShadow_4775_10958" result="shape"/>
<feColorMatrix in="SourceAlpha" type="matrix" values="0 0 0 0 0 0 0 0 0 0 0 0 0 0 0 0 0 0 127 0" result="hardAlpha"/>
<feOffset dx="1"/>
<feGaussianBlur stdDeviation="1.5"/>
<feComposite in2="hardAlpha" operator="arithmetic" k2="-1" k3="1"/>
<feColorMatrix type="matrix" values="0 0 0 0 0.466346 0 0 0 0 0.466346 0 0 0 0 0.466346 0 0 0 1 0"/>
<feBlend mode="normal" in2="shape" result="effect2_innerShadow_4775_10958"/>
</filter>
<filter id="filter1_ddi_4775_10958" x="11" y="10" width="30" height="30" filterUnits="userSpaceOnUse" color-interpolation-filters="sRGB">
<feFlood flood-opacity="0" result="BackgroundImageFix"/>
<feColorMatrix in="SourceAlpha" type="matrix" values="0 0 0 0 0 0 0 0 0 0 0 0 0 0 0 0 0 0 127 0" result="hardAlpha"/>
<feOffset/>
<feGaussianBlur stdDeviation="2"/>
<feComposite in2="hardAlpha" operator="out"/>
<feColorMatrix type="matrix" values="0 0 0 0 0 0 0 0 0 0 0 0 0 0 0 0 0 0 0.25 0"/>
<feBlend mode="normal" in2="BackgroundImageFix" result="effect1_dropShadow_4775_10958"/>
<feColorMatrix in="SourceAlpha" type="matrix" values="0 0 0 0 0 0 0 0 0 0 0 0 0 0 0 0 0 0 127 0" result="hardAlpha"/>
<feOffset/>
<feGaussianBlur stdDeviation="2.5"/>
<feComposite in2="hardAlpha" operator="out"/>
<feColorMatrix type="matrix" values="0 0 0 0 0 0 0 0 0 0 0 0 0 0 0 0 0 0 1 0"/>
<feBlend mode="normal" in2="effect1_dropShadow_4775_10958" result="effect2_dropShadow_4775_10958"/>
<feBlend mode="normal" in="SourceGraphic" in2="effect2_dropShadow_4775_10958" result="shape"/>
<feColorMatrix in="SourceAlpha" type="matrix" values="0 0 0 0 0 0 0 0 0 0 0 0 0 0 0 0 0 0 127 0" result="hardAlpha"/>
<feOffset dy="-4"/>
<feGaussianBlur stdDeviation="5"/>
<feComposite in2="hardAlpha" operator="arithmetic" k2="-1" k3="1"/>
<feColorMatrix type="matrix" values="0 0 0 0 0 0 0 0 0 0 0 0 0 0 0 0 0 0 0.25 0"/>
<feBlend mode="normal" in2="shape" result="effect3_innerShadow_4775_10958"/>
</filter>
<radialGradient id="paint0_radial_4775_10958" cx="0" cy="0" r="1" gradientUnits="userSpaceOnUse" gradientTransform="translate(12.5 8.5) rotate(102.265) scale(11.7686)">
<stop offset="0.350962" stop-color="#FFB042" stop-opacity="0.9"/>
<stop offset="1" stop-color="#5A3500"/>
</radialGradient>
<clipPath id="clip0_4775_10958">
<rect width="52" height="56" fill="white" transform="matrix(1 0 0 -1 0 49)"/>
</clipPath>
</defs>
</svg>
