<svg width="21" height="21" viewBox="0 0 21 21" fill="none" xmlns="http://www.w3.org/2000/svg">
<path d="M10.4987 0.0834961C11.8666 0.0834961 13.2212 0.352931 14.485 0.876418C15.7488 1.3999 16.8971 2.16719 17.8644 3.13447C18.8317 4.10174 19.599 5.25007 20.1224 6.51388C20.6459 7.77768 20.9154 9.13223 20.9154 10.5002C20.9154 13.2628 19.8179 15.9124 17.8644 17.8659C15.9109 19.8194 13.2614 20.9168 10.4987 20.9168C5.70703 20.9168 1.69661 17.7085 0.457031 13.3439L4.44661 14.9897C4.58332 15.657 4.94609 16.2567 5.47367 16.6875C6.00125 17.1183 6.66133 17.3538 7.34245 17.3543C8.96745 17.3543 10.2904 16.0314 10.2904 14.4064V14.271L13.832 11.7397H13.9154C16.082 11.7397 17.8424 9.97933 17.8424 7.81266C17.8424 5.646 16.082 3.88558 13.9154 3.88558C11.7487 3.88558 9.97786 5.646 9.97786 7.81266V7.86475L7.50911 11.4689L7.34245 11.4585C6.72786 11.4585 6.15495 11.646 5.6862 11.9689L0.0820312 9.66683C0.529948 4.30225 5.00911 0.0834961 10.4987 0.0834961ZM6.6237 15.8856C7.45703 16.2293 8.41536 15.8439 8.75911 15.0106C9.10286 14.1772 8.70703 13.2293 7.89453 12.8856L6.5612 12.3335C7.07161 12.146 7.64453 12.1356 8.1862 12.3647C8.73828 12.5835 9.16536 13.0106 9.38411 13.5627C9.61328 14.1043 9.61328 14.7085 9.38411 15.2502C8.9362 16.3752 7.61328 16.9168 6.48828 16.4481C5.96745 16.2293 5.57161 15.8335 5.35286 15.3647L6.6237 15.8856ZM16.5404 7.81266C16.5404 9.26058 15.3633 10.4377 13.9154 10.4377C13.221 10.4349 12.556 10.1571 12.0659 9.66514C11.5759 9.17316 11.3008 8.50705 11.3008 7.81266C11.2994 7.46892 11.3661 7.12831 11.497 6.81048C11.6279 6.49264 11.8204 6.20386 12.0635 5.9608C12.3066 5.71774 12.5953 5.5252 12.9132 5.3943C13.231 5.26339 13.5716 5.1967 13.9154 5.19808C14.6098 5.19807 15.2759 5.47321 15.7678 5.96324C16.2598 6.45327 16.5376 7.11828 16.5404 7.81266ZM11.957 7.81266C11.957 8.896 12.832 9.78141 13.9258 9.78141C15.0091 9.78141 15.8841 8.896 15.8841 7.81266C15.8841 6.72933 15.0091 5.84391 13.9258 5.84391C12.832 5.84391 11.957 6.72933 11.957 7.81266Z" fill="white"/>
</svg>
