<svg width="151" height="150" viewBox="0 0 151 150" fill="none" xmlns="http://www.w3.org/2000/svg">
<g clip-path="url(#clip0_4726_4768)">
<path fill-rule="evenodd" clip-rule="evenodd" d="M108.312 131.25C131.656 131.25 150.5 121.875 150.5 107.812V18.75C150.5 9.375 131.75 0 108.312 0C84.875 0 66.125 9.375 66.125 18.75V51.5625C77.0938 56.1562 86.4688 63.8438 93.125 73.5938C97.7188 74.4938 102.781 74.9906 108.312 74.9906C120.594 74.9906 130.812 72.5438 138.125 68.5594C139.163 67.9888 140.174 67.3694 141.153 66.7031V79.6406C141.153 81.8438 139.4 85.2656 133.634 88.4156C128.047 91.4625 119.478 93.7031 108.322 93.7031C106.091 93.7031 103.966 93.6188 101.947 93.45C102.697 96.5312 103.197 99.6875 103.447 102.919C105.028 103.006 106.653 103.05 108.322 103.05C120.603 103.05 130.822 100.603 138.134 96.6187C139.173 96.0482 140.183 95.4287 141.162 94.7625V107.7C141.162 109.912 139.766 113.194 133.747 116.438C127.822 119.625 118.934 121.762 108.341 121.762C106.184 121.762 104.097 121.675 102.078 121.5C101.357 124.616 100.389 127.67 99.1813 130.631C102.131 130.962 105.181 131.128 108.331 131.128L108.312 131.25ZM133.625 60.375C139.391 57.225 141.144 53.8031 141.144 51.6V38.6625C140.175 39.325 139.166 39.9437 138.116 40.5187C130.822 44.5031 120.584 46.95 108.303 46.95C96.0219 46.95 85.8031 44.5031 78.4906 40.5187C77.4525 39.9482 76.442 39.3287 75.4625 38.6625V51.6C75.4625 53.8031 77.2156 57.225 82.9813 60.3656C88.5688 63.4125 97.1375 65.6531 108.294 65.6531C119.45 65.6531 127.981 63.4125 133.606 60.3656L133.625 60.375ZM75.5 23.4375C75.5 20.7375 76.6719 18.1406 78.8562 16.5562C80.0469 15.6938 81.3406 14.8312 82.3625 14.3625C84.9219 13.1812 97.7375 9.36563 108.331 9.36563C118.925 9.36563 128.113 11.4937 134.3 14.3625C135.463 14.8969 136.747 15.7313 137.881 16.5562C140.047 18.1219 141.162 20.7 141.162 23.3719V23.4281C141.162 25.6313 139.409 29.0531 133.644 32.2031C128.056 35.25 119.487 37.4906 108.331 37.4906C97.175 37.4906 88.6438 35.2406 83.0188 32.2031C77.2531 29.0625 75.5 25.6313 75.5 23.4375Z" fill="white"/>
<path fill-rule="evenodd" clip-rule="evenodd" d="M84.875 107.812C84.875 131.156 66.0312 150 42.6875 150C19.3438 150 0.5 131.156 0.5 107.812C0.5 84.4688 19.3438 65.625 42.6875 65.625C66.0312 65.625 84.875 84.4688 84.875 107.812ZM75.5 107.812C75.5 125.906 60.7812 140.625 42.6875 140.625C24.5938 140.625 9.875 125.906 9.875 107.812C9.875 89.7188 24.5938 75 42.6875 75C60.7812 75 75.5 89.7188 75.5 107.812Z" fill="white"/>
</g>
<defs>
<clipPath id="clip0_4726_4768">
<rect width="150" height="150" fill="white" transform="translate(0.5)"/>
</clipPath>
</defs>
</svg>
