<svg width="20" height="21" viewBox="0 0 20 21" fill="none" xmlns="http://www.w3.org/2000/svg">
<g clip-path="url(#clip0_4747_47100)">
<path fill-rule="evenodd" clip-rule="evenodd" d="M17.5 6.125C17.5 3.0125 16.25 0.5 14.375 0.5H2.5C1.25 0.5 0 3 0 6.125C0 9.25 1.25 11.75 2.5 11.75H6.875C7.4875 10.2875 8.5125 9.0375 9.8125 8.15C9.9325 7.5375 9.99875 6.8625 9.99875 6.125C9.99875 4.4875 9.6725 3.125 9.14125 2.15C9.06517 2.01158 8.98258 1.87685 8.89375 1.74625H10.6187C10.9125 1.74625 11.3687 1.98 11.7887 2.74875C12.195 3.49375 12.4937 4.63625 12.4937 6.12375C12.4937 6.42125 12.4825 6.70458 12.46 6.97375C12.8708 6.87375 13.2917 6.80708 13.7225 6.77375C13.7342 6.56292 13.74 6.34625 13.74 6.12375C13.74 4.48625 13.4137 3.12375 12.8825 2.14875C12.8064 2.01033 12.7238 1.8756 12.635 1.745H14.36C14.655 1.745 15.0925 1.93125 15.525 2.73375C15.95 3.52375 16.235 4.70875 16.235 6.12125C16.235 6.40875 16.2233 6.68708 16.2 6.95625C16.6155 7.05234 17.0226 7.18151 17.4175 7.3425C17.4617 6.94917 17.4838 6.5425 17.4838 6.1225L17.5 6.125ZM8.05 2.75C7.63 1.98125 7.17375 1.7475 6.88 1.7475H5.155C5.24333 1.87667 5.32583 2.01125 5.4025 2.15125C5.93375 3.12375 6.26 4.48875 6.26 6.12625C6.26 7.76375 5.93375 9.12625 5.4025 10.1012C5.32642 10.2397 5.24383 10.3744 5.155 10.505H6.88C7.17375 10.505 7.63 10.2712 8.04875 9.5025C8.455 8.7575 8.75375 7.615 8.75375 6.1275C8.75375 4.64 8.455 3.5025 8.04875 2.7525L8.05 2.75ZM3.125 10.5C2.765 10.5 2.41875 10.3438 2.2075 10.0525C2.0925 9.89375 1.9775 9.72125 1.915 9.585C1.7575 9.24375 1.24875 7.535 1.24875 6.1225C1.24875 4.71 1.5325 3.485 1.915 2.66C1.98625 2.505 2.0975 2.33375 2.2075 2.1825C2.41625 1.89375 2.76 1.745 3.11625 1.745H3.12375C3.4175 1.745 3.87375 1.97875 4.29375 2.7475C4.7 3.4925 4.99875 4.635 4.99875 6.1225C4.99875 7.61 4.69875 8.7475 4.29375 9.4975C3.875 10.2662 3.4175 10.5 3.125 10.5Z" fill="white"/>
<path fill-rule="evenodd" clip-rule="evenodd" d="M14.375 9.25C17.4875 9.25 20 11.7625 20 14.875C20 17.9875 17.4875 20.5 14.375 20.5C11.2625 20.5 8.75 17.9875 8.75 14.875C8.75 11.7625 11.2625 9.25 14.375 9.25ZM14.375 10.5C16.7875 10.5 18.75 12.4625 18.75 14.875C18.75 17.2875 16.7875 19.25 14.375 19.25C11.9625 19.25 10 17.2875 10 14.875C10 12.4625 11.9625 10.5 14.375 10.5Z" fill="white"/>
</g>
<defs>
<clipPath id="clip0_4747_47100">
<rect width="20" height="20" fill="white" transform="matrix(0 -1 1 0 0 20.5)"/>
</clipPath>
</defs>
</svg>
