<svg width="239" height="130" viewBox="0 0 239 130" fill="none" xmlns="http://www.w3.org/2000/svg">
<g clip-path="url(#clip0_4726_16700)">
<path d="M133.32 68.4124L116.706 68.4304C120.309 84.9527 130.177 99.4198 144.239 108.793L153.197 95.3991C143.614 89.0124 136.581 79.4634 133.32 68.4124ZM73.9319 50.8988C73.7846 51.0382 73.6676 51.2065 73.5883 51.3931C73.509 51.5797 73.4691 51.7806 73.4711 51.9831L73.4562 62.2996C73.4475 62.6609 73.5437 63.0167 73.7332 63.3239C73.9228 63.6311 74.1975 63.8765 74.524 64.0303C76.3324 64.8182 76.1497 67.3585 74.2991 70.1759L67.6289 80.362C67.3594 80.7727 67.1734 81.2323 67.0814 81.7144C66.9895 82.1966 66.9934 82.6919 67.0929 83.172C67.1925 83.6522 67.3857 84.1078 67.6616 84.5128C67.9375 84.9178 68.2907 85.2643 68.7009 85.5324L70.1186 86.4497C70.7789 86.8819 71.5183 87.1795 72.2944 87.3255C73.0706 87.4714 73.8683 87.4629 74.6419 87.3004C75.4156 87.1379 76.15 86.8246 76.8032 86.3784C77.4564 85.9322 78.0156 85.3619 78.4487 84.7L85.5194 73.9027C85.8819 73.3411 86.3788 72.8786 86.9648 72.5572C87.5508 72.2357 88.2075 72.0655 88.8752 72.0619L103.918 72.0453C105.201 72.0439 106.432 71.533 107.34 70.625C108.248 69.717 108.76 68.4862 108.762 67.2035L108.771 61.0899L136.899 61.0594L136.925 43.2194L118.603 43.2396L118.6 45.4304L79.5576 45.4728C79.5576 45.4728 75.3991 49.5652 73.9322 50.8985L73.9319 50.8988ZM90.4454 66.3095C90.4461 65.813 90.5446 65.3214 90.7352 64.8625C90.9258 64.4036 91.2049 63.9866 91.5565 63.6351C91.908 63.2837 92.3252 63.0048 92.7841 62.8143C93.243 62.6238 93.7348 62.5255 94.2312 62.525L100.152 62.5186C100.648 62.518 101.14 62.6153 101.598 62.8048C102.056 62.9942 102.473 63.2722 102.823 63.6229C103.174 63.9736 103.452 64.39 103.641 64.8485C103.83 65.3069 103.927 65.7984 103.927 66.2949L103.925 67.1811C103.924 67.6776 103.826 68.1693 103.635 68.6281C103.445 69.087 103.166 69.5041 102.814 69.8555C102.462 70.2069 102.045 70.4858 101.586 70.6763C101.127 70.8668 100.636 70.9651 100.139 70.9656L94.2005 70.9721C93.2012 70.9683 92.245 70.5689 91.541 69.8613C90.8371 69.1537 90.4427 68.1954 90.4441 67.196L90.4454 66.3095ZM18.0824 83.1483C17.6624 83.3002 17.2195 83.3785 16.7733 83.3796L13.9297 83.3827C13.4108 83.3832 12.9135 83.1775 12.5471 82.811C12.1808 82.4445 11.9753 81.9471 11.976 81.4283L12.01 57.819C12.0114 57.0248 12.3185 56.2608 12.8675 55.6855C13.4164 55.1102 14.1653 54.7677 14.9586 54.7291L51.7349 52.9394L51.9367 52.9392C52.6317 52.9386 53.3159 53.108 53.9295 53.4327L55.2282 54.1158C56.1024 54.5769 57.1087 54.7249 58.0803 54.5353L66.1206 52.9605L66.102 65.8675L18.0824 83.1483ZM199.159 52.5178C199.159 52.2765 199.112 52.0377 199.02 51.8149C198.928 51.5921 198.793 51.3897 198.623 51.2192C198.453 51.0488 198.25 50.9137 198.027 50.8217C197.805 50.7296 197.566 50.6824 197.325 50.6827L188.643 50.6921L188.647 48.2713L200.213 48.2588L201.972 51.3845C202.487 52.2971 203.237 53.0554 204.143 53.5816C205.05 54.1078 206.081 54.3829 207.13 54.3786L221.691 54.3629L224.715 46.3122C224.906 45.8061 225.246 45.3697 225.69 45.0615C226.135 44.7533 226.663 44.5878 227.203 44.5873L227.625 44.5865C229.128 44.5849 230.527 45.8007 230.524 47.3029L230.512 55.7679L234.15 55.764L234.145 59.3056L230.503 59.3095L230.5 60.9629L188.628 61.0083L188.638 54.3666L197.319 54.357C197.561 54.3567 197.799 54.309 198.023 54.2164C198.246 54.1239 198.448 53.9883 198.619 53.8176C198.79 53.6468 198.926 53.4441 199.018 53.2211C199.111 52.9981 199.159 52.7591 199.159 52.5178ZM181.298 48.1828L181.283 58.4488C181.282 59.1524 181.018 59.8308 180.542 60.35C180.065 60.8692 179.412 61.1915 178.711 61.2531L147.308 64.0155C146.92 64.0497 146.529 64.0028 146.16 63.8777C145.791 63.7527 145.452 63.5522 145.166 63.2891C144.879 63.0259 144.65 62.7058 144.494 62.3492C144.337 61.9925 144.257 61.607 144.258 61.2173L144.277 48.2139C144.278 47.4683 144.575 46.7531 145.103 46.2253C145.631 45.6976 146.346 45.4007 147.092 45.3998L178.491 45.3655C178.86 45.3651 179.225 45.4374 179.566 45.5783C179.907 45.7192 180.217 45.9259 180.477 46.1867C180.738 46.4475 180.945 46.7572 181.086 47.0981C181.226 47.439 181.299 47.8045 181.298 48.1737L181.298 48.1828Z" fill="white" fill-opacity="0.8"/>
</g>
<defs>
<clipPath id="clip0_4726_16700">
<rect width="239" height="130" fill="white"/>
</clipPath>
</defs>
</svg>
