<svg width="20" height="20" viewBox="0 0 20 20" fill="none" xmlns="http://www.w3.org/2000/svg">
<path d="M4.16536 14.1667V0.833399H7.4987V1.66673H8.33203V6.66673C8.33203 6.88775 8.41983 7.09971 8.57611 7.25599C8.73239 7.41227 8.94435 7.50007 9.16536 7.50007H9.9987C10.4407 7.50007 10.8646 7.67566 11.1772 7.98822C11.4898 8.30078 11.6654 8.7247 11.6654 9.16673V11.9834C11.6654 12.3001 11.8487 12.5917 12.132 12.7334L16.207 14.7751C16.4904 14.9167 16.6654 15.2001 16.6654 15.5167V18.3334C16.6654 18.3334 16.6654 20.8334 11.6654 17.5001C11.6654 17.5001 8.33203 15.0001 8.33203 18.3334H4.16536V17.5001L3.33203 17.0834V14.5834L4.16536 14.1667ZM9.9987 8.3334H9.16536C8.94435 8.3334 8.73239 8.4212 8.57611 8.57748C8.41983 8.73376 8.33203 8.94572 8.33203 9.16673V10.0001C8.33203 10.0001 9.16536 10.8334 9.9987 10.0001C9.9987 10.4421 9.8231 10.866 9.51054 11.1786C9.19798 11.4911 8.77406 11.6667 8.33203 11.6667C8.33203 11.8877 8.41983 12.0997 8.57611 12.256C8.73239 12.4123 8.94435 12.5001 9.16536 12.5001H9.9987C10.2197 12.5001 10.4317 12.4123 10.588 12.256C10.7442 12.0997 10.832 11.8877 10.832 11.6667V9.16673C10.832 8.94572 10.7442 8.73376 10.588 8.57748C10.4317 8.4212 10.2197 8.3334 9.9987 8.3334Z" fill="white"/>
</svg>
