<svg width="20" height="20" viewBox="0 0 20 20" fill="none" xmlns="http://www.w3.org/2000/svg">
<path d="M2.5 16.3333L7.75 11.0833C7.41667 10.6667 7.15278 10.1875 6.95833 9.64583C6.76389 9.10417 6.66667 8.52778 6.66667 7.91667C6.66667 6.40278 7.19111 5.12167 8.24 4.07333C9.28889 3.025 10.57 2.50056 12.0833 2.5C13.5967 2.49944 14.8778 3.02389 15.9267 4.07333C16.9756 5.12278 17.5 6.40389 17.5 7.91667C17.5 9.42944 16.9756 10.7108 15.9267 11.7608C14.8778 12.8108 13.5967 13.335 12.0833 13.3333C11.4722 13.3333 10.8958 13.2361 10.3542 13.0417C9.8125 12.8472 9.33333 12.5833 8.91667 12.25L3.66667 17.5L2.5 16.3333ZM8.33333 7.91667C8.33333 8.95833 8.69778 9.84389 9.42667 10.5733C10.1556 11.3028 11.0411 11.6672 12.0833 11.6667C13.1256 11.6661 14.0108 11.3017 14.7392 10.5733C15.4675 9.845 15.8322 8.95944 15.8333 7.91667C15.8344 6.87389 15.4697 5.98861 14.7392 5.26083C14.0086 4.53306 13.1233 4.16833 12.0833 4.16667C11.0433 4.165 10.1578 4.52972 9.42667 5.26083C8.69556 5.99195 8.33111 6.87722 8.33333 7.91667Z" fill="white" fill-opacity="0.4"/>
<path d="M17.083 7.91699C17.0829 9.32159 16.6009 10.4967 15.6318 11.4668C14.663 12.4365 13.4888 12.9185 12.084 12.917H12.083C11.5171 12.917 10.9888 12.8266 10.4951 12.6494C9.9933 12.4693 9.55483 12.2273 9.17676 11.9248L8.88574 11.6914L3.66699 16.9102L3.08984 16.333L8.30859 11.1143L8.0752 10.8232C7.77274 10.4452 7.53073 10.0067 7.35059 9.50488C7.1734 9.01124 7.08304 8.48293 7.08301 7.91699C7.08301 6.51118 7.56545 5.33649 8.53418 4.36816C9.50309 3.39977 10.6778 2.91762 12.083 2.91699C13.4882 2.91648 14.6629 3.39868 15.6318 4.36816C16.6009 5.33776 17.083 6.5123 17.083 7.91699ZM16.25 7.91699C16.2512 6.76476 15.8433 5.77283 15.0332 4.96582C14.224 4.15967 13.2329 3.75184 12.084 3.75C10.934 3.74816 9.94174 4.15596 9.13184 4.96582C8.32203 5.77563 7.91564 6.76764 7.91797 7.91699C7.91805 9.06771 8.32406 10.0598 9.13184 10.8682C9.93984 11.6767 10.9325 12.0836 12.084 12.083C13.235 12.0823 14.2268 11.6755 15.0342 10.8682C15.8416 10.0607 16.2488 9.06854 16.25 7.91699Z" stroke="white" stroke-opacity="0.4" stroke-width="0.833333"/>
</svg>
