<svg width="20" height="20" viewBox="0 0 20 20" fill="none" xmlns="http://www.w3.org/2000/svg">
<path d="M12.5013 3.33317V9.1665H4.30964L3.33464 10.1415V3.33317H12.5013ZM13.3346 1.6665H2.5013C2.28029 1.6665 2.06833 1.7543 1.91205 1.91058C1.75577 2.06686 1.66797 2.27882 1.66797 2.49984V14.1665L5.0013 10.8332H13.3346C13.5556 10.8332 13.7676 10.7454 13.9239 10.5891C14.0802 10.4328 14.168 10.2209 14.168 9.99984V2.49984C14.168 2.27882 14.0802 2.06686 13.9239 1.91058C13.7676 1.7543 13.5556 1.6665 13.3346 1.6665ZM17.5013 4.99984H15.8346V12.4998H5.0013V14.1665C5.0013 14.3875 5.0891 14.5995 5.24538 14.7558C5.40166 14.912 5.61362 14.9998 5.83464 14.9998H15.0013L18.3346 18.3332V5.83317C18.3346 5.61216 18.2468 5.4002 18.0906 5.24392C17.9343 5.08763 17.7223 4.99984 17.5013 4.99984Z" fill="white"/>
</svg>
