<svg width="16" height="16" viewBox="0 0 16 16" fill="none" xmlns="http://www.w3.org/2000/svg">
<g clip-path="url(#clip0_3165_3389)">
<path d="M15.8574 11.5781C15.8144 11.506 15.5484 10.928 14.2683 9.73992C12.9282 8.49582 13.1082 8.69784 14.7223 6.54668C15.7054 5.23658 16.0984 4.43652 15.9754 4.0945C15.8584 3.76847 15.1353 3.85448 15.1353 3.85448L12.7312 3.86848C12.7312 3.86848 12.5532 3.84448 12.4201 3.92348C12.2911 4.00149 12.2081 4.1815 12.2081 4.1815C12.2081 4.1815 11.8271 5.19558 11.3191 6.05764C10.248 7.87678 9.81895 7.97279 9.64394 7.85978C9.23691 7.59676 9.33892 6.8017 9.33892 6.23766C9.33892 4.47453 9.60594 3.73947 8.81788 3.54946C8.55586 3.48645 8.36384 3.44445 7.69479 3.43745C6.83673 3.42845 6.10968 3.44045 5.69865 3.64146C5.42463 3.77547 5.21361 4.0745 5.34262 4.0915C5.50163 4.1125 5.86166 4.1885 6.05267 4.44852C6.29969 4.78355 6.29069 5.5376 6.29069 5.5376C6.29069 5.5376 6.4327 7.61276 5.95967 7.87078C5.63464 8.04779 5.18961 7.68676 4.23454 6.03564C3.7455 5.19058 3.37547 4.25551 3.37547 4.25551C3.37547 4.25551 3.30447 4.0815 3.17746 3.98849C3.02345 3.87548 2.80743 3.83948 2.80743 3.83948L0.521262 3.85348C0.521262 3.85348 0.178236 3.86348 0.0522271 4.01249C-0.0597812 4.1455 0.0432265 4.41952 0.0432265 4.41952C0.0432265 4.41952 1.83336 8.60683 3.85951 10.718C5.71865 12.6531 7.8288 12.5261 7.8288 12.5261H8.78488C8.78488 12.5261 9.0739 12.4941 9.22091 12.3351C9.35692 12.1891 9.35192 11.9151 9.35192 11.9151C9.35192 11.9151 9.33292 10.632 9.92896 10.443C10.516 10.257 11.2701 11.6831 12.0691 12.2321C12.6732 12.6471 13.1322 12.5561 13.1322 12.5561L15.2694 12.5261C15.2694 12.5261 16.3874 12.4571 15.8574 11.5781Z" fill="white"/>
</g>
<defs>
<clipPath id="clip0_3165_3389">
<rect width="16" height="16" fill="white"/>
</clipPath>
</defs>
</svg>
