<svg width="12" height="14" viewBox="0 0 12 14" fill="none" xmlns="http://www.w3.org/2000/svg">
<path d="M2.5 2.00031H9.58301V2.25031H2.5C2.24563 2.25031 2.0087 2.35937 1.83984 2.5423C1.67203 2.72411 1.58301 2.96444 1.58301 3.20831C1.58301 3.45219 1.67203 3.69252 1.83984 3.87433C2.0087 4.05726 2.24563 4.16632 2.5 4.16632H9.5C9.77605 4.16632 10.0487 4.28474 10.2549 4.50812C10.4621 4.73264 10.583 5.04455 10.583 5.37531V10.7913C10.583 11.1221 10.4621 11.434 10.2549 11.6585C10.0487 11.8819 9.77605 12.0003 9.5 12.0003H1.41699V3.20831C1.41699 2.87771 1.53805 2.5666 1.74512 2.3421C1.95133 2.1187 2.22393 2.00031 2.5 2.00031ZM1.58301 11.7503H9.5C9.75437 11.7503 9.9913 11.6403 10.1602 11.4573C10.3279 11.2755 10.417 11.0351 10.417 10.7913V5.37531C10.417 5.13151 10.3279 4.89108 10.1602 4.70929C9.9913 4.52636 9.75437 4.41632 9.5 4.41632H2.5C2.37705 4.41632 2.25879 4.39386 2.14844 4.35187L1.58301 4.13702V11.7503ZM8.58301 7.95831V8.20831H7.91699V7.95831H8.58301Z" fill="#DFDFDF" stroke="#DFDFDF" stroke-width="0.833333"/>
</svg>
