<svg xmlns="http://www.w3.org/2000/svg" version="1.1" xmlns:xlink="http://www.w3.org/1999/xlink" width="912" height="725"><svg width="912" height="725" viewBox="0 0 912 725" fill="none" xmlns="http://www.w3.org/2000/svg">
<g clip-path="url(#clip0_3460_1601)">
<path fill-rule="evenodd" clip-rule="evenodd" d="M160.015 31.6695C162.907 16.3225 174.531 4.69555 190.389 1.28755C197.789 -0.302455 268.712 -0.47846 270.765 1.08854C271.751 1.84054 271.505 2.74454 269.657 5.16854C266.661 9.10154 262.606 17.0835 260.963 22.2835C260.119 24.9535 259.5 36.7575 259.099 57.7835L258.5 89.2835L209.565 89.5436C171.08 89.7476 160.459 89.5336 159.83 88.5436C158.663 86.7046 158.821 38.0055 160.015 31.6695ZM284.747 25.6776C288.524 15.3296 297.112 4.11254 303.5 1.18154C306.008 0.030542 327.161 -0.144452 432.5 0.115548C545.179 0.39295 561.511 0.276619 577.104 3.61418C580.567 4.35529 583.993 5.2667 588.429 6.39054C653.21 22.8005 704.42 73.4625 721.492 138.029C722.855 143.185 723.898 147.002 724.702 150.868C727.421 163.956 727.392 177.614 727.743 245.784C728.04 303.325 727.819 330.959 726.993 339.784C723.923 372.547 714.849 401.152 699.164 427.509C690.351 442.318 681.959 452.754 668.715 465.372C637.321 495.28 603.535 509.982 557.5 513.766C541.858 515.052 308.676 515.125 304.215 513.846C296.727 511.698 289.035 502.301 284.687 489.99C282.917 484.976 282.62 481.09 282.238 457.963C281.999 443.487 282.1 430.062 282.463 428.13C283.01 425.215 283.838 424.301 287.338 422.753C289.657 421.727 292.667 419.703 294.027 418.255L296.5 415.623V386.089V356.555L292.583 353.17C290.429 351.308 288.067 349.784 287.333 349.784C286.6 349.784 285.1 348.884 284 347.784C282.03 345.814 282 344.451 282 257.866C282 209.511 282.281 169.215 282.625 168.319C282.968 167.424 285.46 165.571 288.161 164.202C296.937 159.755 296.992 159.526 296.996 127.111L297 98.9366L294.314 95.7456C292.837 93.9896 289.701 91.7265 287.346 90.7175C284.365 89.4395 282.868 88.1076 282.424 86.3355C282.072 84.9355 281.991 71.9755 282.243 57.5365C282.648 34.2885 282.935 30.6416 284.747 25.6776ZM159.829 146.542C158.483 144.422 158.819 110.365 160.2 108.984C161.599 107.585 271.587 107.235 273.773 108.622C274.746 109.24 274.981 113.884 274.773 128.357L274.5 147.284L217.564 147.542C172.678 147.746 160.459 147.534 159.829 146.542ZM406.049 130.323C406.874 129.975 407.89 130.078 409.139 129.783C414.198 128.587 495.625 128.627 506.789 129.83C530.065 132.339 546.225 139.754 561.002 154.705C572.883 166.727 581.709 182.82 585.725 199.784C587.299 206.435 587.5 212.833 587.5 256.284C587.5 311.577 587.284 313.736 579.919 332.18C574.547 345.634 570.004 352.774 560.529 362.66C548.695 375.006 538.786 381.267 523.5 386.058C509.636 390.404 501.123 390.947 452.277 390.603L407.054 390.284L404.777 388.006L402.5 385.728V259.792C402.5 144.01 402.093 131.99 406.049 130.323ZM160.2 347.584C158.452 345.836 158.462 168.722 160.209 166.975C161.129 166.055 173.038 165.827 209.959 166.025L258.5 166.284L258.755 256.722C258.958 328.411 258.75 347.325 257.755 347.956C255.586 349.334 161.591 348.975 160.2 347.584ZM159.227 386.914C159.037 374.151 159.306 368.121 160.106 367.156C161.069 365.996 170.562 365.81 217.879 366.026L274.5 366.284V385.784V405.284L265.5 405.908C253.428 406.746 178.692 406.772 168 405.943L159.5 405.284L159.227 386.914ZM159.236 455.484C158.938 433.91 159.142 426.317 160.05 425.224C161.086 423.975 168.266 423.803 209.88 424.025L258.5 424.284L259.084 456.784C259.482 478.93 260.076 490.558 260.947 493.284C262.464 498.026 266.481 506.184 269.191 510.027C270.256 511.536 270.843 513.229 270.496 513.79C270.081 514.463 256.367 514.715 230.183 514.531C191.668 514.26 190.338 514.185 185 512.003C174.039 507.523 165.172 498.819 161.348 488.784C159.912 485.016 159.569 479.599 159.236 455.484ZM250.844 588.713C256.399 584.731 262.67 582.225 270.763 580.753C278.894 579.274 297.693 580.325 305.085 582.672C312.437 585.006 320.463 590.226 319.384 591.972C318.986 592.616 319.139 592.816 319.745 592.442C321.177 591.557 326.853 598.198 329.201 603.507C333.259 612.679 333.965 619.819 333.975 651.784C333.98 668.559 333.515 685.209 332.94 688.784C331.57 697.308 328.191 704.53 322.84 710.371C318.036 715.614 309.927 721.247 309.058 719.943C308.751 719.484 305.652 719.749 302.17 720.533C298.689 721.316 296.07 722.188 296.351 722.469C296.632 722.749 299.209 722.476 302.077 721.861C304.945 721.246 307.483 720.934 307.716 721.167C307.95 721.401 304.983 722.31 301.123 723.188C293.164 724.998 276.93 725.288 268.891 723.763C259.117 721.91 245.05 714.131 246.685 711.484C247.028 710.929 246.855 710.756 246.3 711.099C244.042 712.494 238.054 702.872 235.214 693.284C233.221 686.557 232.289 631.718 233.954 619.202C235.283 609.216 237.958 601.314 239.002 604.29C239.626 606.068 239.678 606.066 240.382 604.23C240.804 603.13 240.666 602.173 240.055 601.969C238.226 601.359 245.262 592.715 250.844 588.713ZM603.901 584.834C606.3 583.611 611.241 581.985 614.881 581.222C629.732 578.11 653.81 581.09 661.004 586.931C662.377 588.045 662.938 588.667 662.25 588.312C660.456 587.385 660.71 588.304 662.692 589.912C663.842 590.844 664.143 590.883 663.633 590.034C663.22 589.347 663.332 588.784 663.882 588.784C664.806 588.784 666.414 590.62 666.511 591.784C666.534 592.059 667.124 593.184 667.824 594.284C669.009 596.148 669.048 596.115 668.401 593.784C667.748 591.43 667.862 591.468 670.36 594.436C672.062 596.458 672.797 598.25 672.412 599.436C671.948 600.862 672.039 600.964 672.808 599.883C673.589 598.785 674.259 599.372 675.903 602.593C678.37 607.43 678.58 609.103 676.365 606.284C674.839 604.342 674.815 604.357 675.53 606.784C676.968 611.663 678.063 614.054 678.609 613.508C678.913 613.204 678.66 612.017 678.046 610.87C677.422 609.704 677.342 608.784 677.865 608.784C678.38 608.784 679.408 611.146 680.15 614.034C681.15 617.922 681.5 627.843 681.5 652.284C681.5 687.642 681.077 691.593 676.268 701.189C674.355 705.005 673.588 705.782 672.81 704.689C672.049 703.618 671.961 703.742 672.442 705.21C673.28 707.77 665.393 716.043 662.875 715.244C661.936 714.946 660.882 715.166 660.532 715.732C660.145 716.358 660.601 716.534 661.698 716.179C662.947 715.776 662.732 716.234 661 717.668C659.625 718.807 655.575 720.761 652 722.011C646.355 723.985 643.527 724.284 630.5 724.284C617.147 724.284 614.764 724.018 608.792 721.864C593.282 716.268 583.819 704.358 580.919 686.784C579.345 677.246 579.798 621.266 581.508 614.015C583.284 606.482 586.918 599.018 590.142 596.284L592.396 594.372C592.397 594.376 592.399 594.38 592.4 594.384C592.402 594.389 592.404 594.395 592.406 594.401L590.5 596.784L588.5 599.284L590.683 597.44C591.873 596.434 592.643 595.074 592.406 594.401L592.5 594.284L592.396 594.372C591.871 592.896 597.902 587.894 603.901 584.834ZM284.438 582.694C276.385 582.734 272.988 582.438 274 581.784C275.899 580.557 293.016 580.508 294.938 581.725C295.851 582.302 292.018 582.656 284.438 582.694ZM631.191 582.769C623.903 582.779 620.102 582.428 620.5 581.784C621.293 580.501 639.015 580.501 641 581.784C642.017 582.442 638.862 582.758 631.191 582.769ZM117.563 652.44C117.598 614.907 117.962 583.655 118.372 582.991C119.472 581.211 170.915 581.393 181.114 583.212C188.736 584.572 198.81 588.307 197.74 589.377C197.427 589.69 196.194 589.423 195 588.784C193.806 588.145 192.608 587.842 192.339 588.112C191.734 588.716 195.874 590.225 198.231 590.259C199.182 590.273 200.019 590.734 200.09 591.284C200.161 591.834 201.699 593.922 203.507 595.923C205.315 597.925 207.107 600.547 207.489 601.749C207.87 602.951 208.403 603.714 208.672 603.445C209.454 602.663 207.021 598.559 203.684 595.034C201.992 593.246 201.053 591.784 201.598 591.784C203.442 591.784 210.007 601.492 212.161 607.406C213.947 612.307 214.317 615.611 214.386 627.284C214.457 639.417 214.186 641.951 212.352 646.284C211.187 649.034 209.821 651.284 209.315 651.284C208.809 651.284 206.576 653.197 204.353 655.534C202.129 657.871 200.655 659.784 201.077 659.784C201.499 659.784 203.454 657.903 205.422 655.604C209.55 650.782 210.247 651.282 206.41 656.313C204.985 658.181 201.366 661.338 198.368 663.328C194.04 666.201 193.044 667.347 193.535 668.894C193.875 669.965 199.294 681.866 205.576 695.34C211.859 708.815 217 720.502 217 721.312C217 722.234 215.973 722.81 214.25 722.853C212.738 722.891 208.35 723.041 204.5 723.185C200.65 723.33 194.638 723.186 191.141 722.866L184.781 722.284L179.537 710.284C176.652 703.684 172.184 693.34 169.607 687.298C163.064 671.959 162.922 671.781 157.227 671.799C154.627 671.808 151.961 672.157 151.302 672.576C150.44 673.124 150.019 680.101 149.802 697.479C149.636 710.757 149.2 721.92 148.833 722.286C148.466 722.652 141.855 723.026 134.142 723.117C123.784 723.24 119.775 722.944 118.808 721.984C117.755 720.936 117.512 707.396 117.563 652.44ZM360.75 583.642C362.893 583.531 362.618 583.342 359.5 582.784C357.3 582.39 367.875 582.02 383 581.961C414.042 581.84 422.583 582.827 432.429 587.674C437.601 590.22 445.74 596.784 443.726 596.784C443.37 596.784 442.105 595.771 440.916 594.534L438.753 592.284L439.885 594.483C440.507 595.693 442.25 597.274 443.758 597.997C448.604 600.32 451.327 609.031 451.809 623.758C452.238 636.836 451.278 643.64 447.942 651.183C445.568 656.549 441.913 661.256 441.111 659.979C440.745 659.395 439.984 659.562 439.211 660.395C438.299 661.377 438.262 661.784 439.083 661.784C439.913 661.784 439.879 662.225 438.962 663.33C438.257 664.18 437.053 664.635 436.288 664.341C435.522 664.047 435.16 664.235 435.483 664.757C435.806 665.28 434.348 666.586 432.242 667.66C425.01 671.35 416.857 672.909 401.767 673.489L387.035 674.055L386.767 698.169L386.5 722.284L380.261 723.172C376.626 723.689 370.157 723.689 364.761 723.172L355.5 722.284L355.243 653.36C355.102 615.452 355.207 584.658 355.477 584.927C355.746 585.197 355.995 615.65 356.028 652.601C356.067 694.579 356.448 719.784 357.045 719.784C357.642 719.784 358 694.323 358 651.784V583.784L360.75 583.642ZM468.5 608.284L468.221 595.034L467.942 581.784H513.771C548.082 581.784 559.902 582.086 560.8 582.984C561.573 583.757 561.965 587.404 561.9 593.234C561.79 603.282 560.944 607.422 559.087 607.009C558.407 606.858 558.141 607.204 558.496 607.777C559.3 609.078 555.14 615.989 553.984 615.274C553.519 614.987 552.813 615.278 552.415 615.922C551.937 616.696 552.127 616.824 552.975 616.299C553.837 615.767 554.093 615.963 553.755 616.895C553.477 617.659 552.71 618.16 552.051 618.009C551.391 617.858 551.136 618.196 551.485 618.759C552.526 620.444 550.913 622.226 549.781 620.641C549.051 619.619 548.956 619.73 549.395 621.089C550.05 623.112 543.735 633.284 541.824 633.284C541.188 633.284 540.482 633.959 540.257 634.784C539.893 636.117 539.966 636.117 540.909 634.784C541.654 633.73 541.974 633.663 541.985 634.559C541.993 635.26 540.829 636.279 539.398 636.823C537.628 637.496 536.988 638.31 537.395 639.37C538.099 641.205 536.277 645.073 535.063 644.323C534.602 644.038 534.288 644.577 534.363 645.521C534.438 646.464 533.865 647.247 533.089 647.26C531.629 647.285 523.396 658.514 524.228 659.346C524.486 659.603 526.386 657.078 528.45 653.734C530.514 650.39 532.414 647.865 532.673 648.124C532.931 648.382 529.895 653.619 525.925 659.762C521.588 666.473 518.423 670.468 517.993 669.773C517.498 668.972 517.085 669.119 516.651 670.252C516.284 671.208 516.434 671.634 517.011 671.277C518.845 670.144 518.02 671.863 512.904 679.839C509.999 684.367 507.353 687.502 506.749 687.129C506.114 686.736 505.987 686.954 506.432 687.673C506.839 688.333 506.423 690.016 505.506 691.415C504.59 692.813 504.138 694.256 504.502 694.621C504.866 694.986 518.289 695.509 534.332 695.784L563.5 696.284V709.284V722.284L555.5 723.022C546.97 723.808 466.265 723.066 464.844 722.188C463.668 721.461 463.78 703.038 464.965 702.306C465.553 701.942 466.056 705.724 466.254 711.997L466.578 722.284L466.789 710.975C466.926 703.639 466.649 699.883 466 700.284C465.45 700.624 465 700.579 465 700.183C465 698.861 484.249 669.7 484.775 670.225C485.06 670.51 484.087 672.566 482.613 674.793C480.363 678.193 480.252 678.644 481.921 677.601C483.014 676.918 483.708 676.159 483.463 675.914C483.218 675.669 483.556 674.819 484.214 674.027C484.872 673.234 485.437 671.392 485.47 669.935C485.514 667.99 485.992 667.362 487.265 667.578C488.219 667.739 489 667.375 489 666.769C489 666.162 488.55 665.944 488 666.284C486.184 667.406 486.944 665.835 492.091 657.832C495.493 652.542 497.649 650.096 498.591 650.457C499.366 650.755 500 650.473 500 649.832C500 649.191 499.55 648.944 499 649.284C498.45 649.624 498 649.696 498 649.445C498 649.194 503.443 640.541 510.096 630.217C516.749 619.892 522.42 610.854 522.697 610.131C523.105 609.069 517.953 608.765 495.851 608.55L468.5 608.284ZM702.241 653.284C702.099 615.334 702.202 583.71 702.47 583.008C702.842 582.033 706.562 581.797 718.229 582.008L733.5 582.284L737.174 589.276C739.195 593.122 740.633 596.484 740.37 596.747C740.107 597.011 739.473 596.564 738.961 595.755C738.181 594.521 738.028 594.566 738.015 596.034C738.007 596.996 738.351 597.784 738.781 597.784C739.21 597.784 740.102 599.217 740.763 600.968C741.424 602.719 742.281 603.837 742.666 603.451C743.051 603.066 742.834 602.218 742.183 601.567C741.533 600.917 741.007 599.687 741.017 598.834C741.026 597.981 743.726 602.38 747.017 608.607C752.885 619.714 753.987 622.512 752.011 621.291C751.434 620.934 751.284 621.36 751.651 622.316C752.122 623.545 752.47 623.641 753.05 622.702C753.709 621.638 760.991 635.031 772.125 657.784C773.778 661.16 773.844 659.977 774.019 624.284C774.118 603.934 774.512 586.159 774.895 584.784L775.59 582.284H789.545H803.5L803.757 652.39L804.013 722.496L797.257 723.114C791.168 723.671 778.272 723.181 775.356 722.281C774.727 722.087 768.022 709.858 760.457 695.106C752.891 680.354 745.49 666.034 744.008 663.284C735.069 646.688 733.714 644.179 734.444 643.151C734.577 642.964 734.778 642.826 735.015 642.662C736.324 641.754 736.322 641.68 735 642.041C733.709 642.393 733.43 648.02 733 682.367L732.5 722.284L724.163 723.181C719.245 723.709 713.093 723.709 709.163 723.181L702.5 722.284L702.241 653.284ZM829 652.392C829 614.291 829.305 582.812 829.678 582.439C830.051 582.067 848.388 581.879 870.428 582.023L910.5 582.284V595.284V608.284L886 608.784L861.5 609.284V623.284V637.284L882.954 637.554C898.585 637.752 904.619 638.159 905.188 639.054C906.25 640.726 906.215 663.533 905.15 664.191C904.683 664.48 895.795 664.781 885.4 664.859C875.005 664.938 865.263 665.214 863.75 665.473L861 665.943V680.255V694.567L863.75 695.266C865.263 695.65 875.95 695.87 887.5 695.755C899.05 695.641 909.301 695.6 910.279 695.665C911.904 695.774 912.034 696.93 911.779 708.991L911.5 722.197L907.5 723.073C902.771 724.108 831.977 723.506 830.212 722.415C829.282 721.84 829 705.572 829 652.392ZM120 584.284C119.45 584.624 119 584.425 119 583.843C119 583.261 119.45 582.784 120 582.784C120.55 582.784 121 582.982 121 583.225C121 583.468 120.55 583.944 120 584.284ZM157.75 583.529C152.938 583.712 145.063 583.712 140.25 583.529C135.438 583.345 139.375 583.195 149 583.195C158.625 583.195 162.563 583.345 157.75 583.529ZM268.729 583.388C268.397 583.72 267.534 583.756 266.813 583.467C266.015 583.148 266.252 582.911 267.417 582.863C268.471 582.82 269.061 583.056 268.729 583.388ZM301 584.074C299.9 584.361 299 584.189 299 583.69C299 583.192 299.9 582.784 301 582.784C302.1 582.784 303 582.957 303 583.167C303 583.378 302.1 583.786 301 584.074ZM396 583.056C398.475 583.056 399.487 583.251 398.25 583.49C397.013 583.728 394.987 583.728 393.75 583.49C392.513 583.251 393.525 583.056 396 583.056ZM469.74 598.497C469.541 601.68 469.376 599.334 469.374 593.284C469.372 587.234 469.535 584.63 469.736 587.497C469.937 590.365 469.939 595.315 469.74 598.497ZM479.269 583.44C478.592 583.714 477.242 583.731 476.269 583.477C475.296 583.223 475.85 582.999 477.5 582.979C479.15 582.959 479.946 583.166 479.269 583.44ZM522.304 583.529C516.697 583.707 507.247 583.708 501.304 583.531C495.362 583.354 499.95 583.208 511.5 583.207C523.05 583.206 527.912 583.351 522.304 583.529ZM544 583.162C550.325 583.162 552.913 583.325 549.75 583.523C546.587 583.721 541.413 583.721 538.25 583.523C535.087 583.325 537.675 583.162 544 583.162ZM615.25 583.446C614.563 583.724 613.438 583.724 612.75 583.446C612.063 583.169 612.625 582.942 614 582.942C615.375 582.942 615.938 583.169 615.25 583.446ZM648.25 583.446C647.563 583.724 646.438 583.724 645.75 583.446C645.063 583.169 645.625 582.942 647 582.942C648.375 582.942 648.938 583.169 648.25 583.446ZM716 583.056C718.475 583.056 719.487 583.251 718.25 583.49C717.013 583.728 714.987 583.728 713.75 583.49C712.513 583.251 713.525 583.056 716 583.056ZM731.729 583.388C731.397 583.72 730.534 583.756 729.813 583.467C729.015 583.148 729.252 582.911 730.417 582.863C731.471 582.82 732.061 583.056 731.729 583.388ZM776.717 649.284C776.565 656.984 776.341 645.172 776.22 623.034C776.099 600.896 776.337 582.784 776.75 582.783C777.433 582.783 777.417 613.761 776.717 649.284ZM801 584.074C799.9 583.786 799 583.378 799 583.167C799 582.957 799.9 582.784 801 582.784C802.1 582.784 803 583.192 803 583.69C803 584.189 802.1 584.361 801 584.074ZM831 584.284C830.45 584.624 830 584.425 830 583.843C830 583.261 830.45 582.784 831 582.784C831.55 582.784 832 582.982 832 583.225C832 583.468 831.55 583.944 831 584.284ZM843.25 583.446C842.563 583.724 841.438 583.724 840.75 583.446C840.063 583.169 840.625 582.942 842 582.942C843.375 582.942 843.938 583.169 843.25 583.446ZM874.729 583.388C874.397 583.72 873.534 583.756 872.813 583.467C872.015 583.148 872.252 582.911 873.417 582.863C874.471 582.82 875.061 583.056 874.729 583.388ZM884 583.056C886.475 583.056 887.487 583.251 886.25 583.49C885.013 583.728 882.987 583.728 881.75 583.49C880.513 583.251 881.525 583.056 884 583.056ZM903.264 583.488C902.034 583.725 899.784 583.731 898.264 583.502C896.744 583.272 897.75 583.078 900.5 583.07C903.25 583.063 904.494 583.251 903.264 583.488ZM909.074 604.784C908.562 604.784 908.148 599.864 908.148 593.784C908.148 587.704 908.562 582.784 909.074 582.784C909.586 582.784 910 587.704 910 593.784C910 599.864 909.586 604.784 909.074 604.784ZM179 584.784C179 586.048 176.957 586.048 175 584.784C173.831 584.029 174.107 583.811 176.25 583.799C177.762 583.791 179 584.234 179 584.784ZM416.269 584.44C415.592 584.714 414.242 584.731 413.269 584.477C412.296 584.223 412.85 583.999 414.5 583.979C416.15 583.959 416.946 584.166 416.269 584.44ZM602.128 587.742C601.783 587.719 603.075 586.838 605 585.784C608.563 583.833 610 583.398 610 584.271C610 584.796 603.163 587.811 602.128 587.742ZM651.5 585.146C650.675 584.829 650 584.393 650 584.177C650 583.961 650.675 583.784 651.5 583.784C652.325 583.784 653 584.22 653 584.753C653 585.285 652.325 585.462 651.5 585.146ZM186 585.784C186 586.958 185.231 586.958 182.5 585.784C180.728 585.022 180.813 584.917 183.25 584.854C184.762 584.816 186 585.234 186 585.784ZM259.448 586.166C258.558 586.507 258.157 586.339 258.507 585.773C258.843 585.229 259.541 584.784 260.059 584.784C261.497 584.784 261.18 585.501 259.448 586.166ZM309.118 586.784C308.568 586.784 307.84 586.334 307.5 585.784C307.16 585.234 307.332 584.784 307.882 584.784C308.432 584.784 309.16 585.234 309.5 585.784C309.84 586.334 309.668 586.784 309.118 586.784ZM427 587.101C425.625 586.736 422.925 586.117 421 585.726C417.59 585.032 417.577 585.012 420.5 584.944C422.15 584.906 424.85 585.524 426.5 586.319C428.92 587.485 429.017 587.636 427 587.101ZM734 587.784C733.467 586.959 733.031 585.834 733.031 585.284C733.031 584.734 733.467 584.959 734 585.784C734.533 586.609 734.969 587.734 734.969 588.284C734.969 588.834 734.533 588.609 734 587.784ZM659.118 587.784C658.568 587.784 657.84 587.334 657.5 586.784C657.16 586.234 657.332 585.784 657.882 585.784C658.432 585.784 659.16 586.234 659.5 586.784C659.84 587.334 659.668 587.784 659.118 587.784ZM802.75 685.461C802.597 704.064 802.472 689.134 802.472 652.284C802.472 615.434 802.597 600.214 802.749 618.461C802.902 636.709 802.902 666.859 802.75 685.461ZM830.662 589.034C830.385 589.722 830.158 589.159 830.158 587.784C830.158 586.409 830.385 585.847 830.662 586.534C830.94 587.222 830.94 588.347 830.662 589.034ZM119.689 591.534C119.438 592.496 119.232 591.709 119.232 589.784C119.232 587.859 119.438 587.072 119.689 588.034C119.941 588.996 119.941 590.572 119.689 591.534ZM593.5 593.872L596.962 590.828C600.672 587.567 601.007 587.376 600.988 588.534C600.981 588.947 599.293 590.316 597.238 591.578L593.5 593.872ZM434.526 590.591C434.219 590.899 433.412 590.592 432.733 589.908C431.753 588.92 431.868 588.806 433.293 589.348C434.279 589.724 434.834 590.283 434.526 590.591ZM559.733 602.008C559.522 604.36 559.346 602.684 559.343 598.284C559.339 593.884 559.512 591.96 559.727 594.008C559.942 596.056 559.945 599.656 559.733 602.008ZM736.989 593.277C736.445 592.941 736 592.243 736 591.725C736 590.287 736.717 590.604 737.382 592.336C737.723 593.226 737.555 593.627 736.989 593.277ZM242 599.519C242 599.153 243.397 597.263 245.104 595.319C246.811 593.375 248.47 591.784 248.791 591.784C249.112 591.784 248.056 593.246 246.445 595.034C244.834 596.822 243.175 598.712 242.758 599.234C242.341 599.756 242 599.885 242 599.519ZM119.749 688.606C119.596 705.479 119.47 691.384 119.47 657.284C119.47 623.184 119.596 609.379 119.75 626.606C119.903 643.833 119.903 671.733 119.749 688.606ZM327.666 604.451C327.436 604.682 326.299 603.051 325.14 600.827C323.98 598.603 323.362 596.795 323.766 596.809C324.665 596.839 328.251 603.866 327.666 604.451ZM445.903 602.215C445.64 602.478 444.829 601.701 444.1 600.489C442.835 598.382 442.857 598.361 444.579 600.01C445.57 600.96 446.166 601.952 445.903 602.215ZM587.452 603.877C585.541 607.572 584.408 607.177 586.123 603.413C586.782 601.967 587.71 600.784 588.186 600.784C588.662 600.784 588.332 602.176 587.452 603.877ZM284.25 604.49C283.012 604.728 280.988 604.728 279.75 604.49C278.512 604.251 279.525 604.056 282 604.056C284.475 604.056 285.488 604.251 284.25 604.49ZM291.059 605.784C290.477 605.784 290 605.334 290 604.784C290 604.234 290.198 603.784 290.441 603.784C290.684 603.784 291.16 604.234 291.5 604.784C291.84 605.334 291.641 605.784 291.059 605.784ZM448.119 609.358C447.635 609.058 447.022 607.682 446.758 606.299C446.162 603.178 447.544 602.951 448.37 606.034C449.207 609.159 449.144 609.991 448.119 609.358ZM633.264 604.488C632.034 604.725 629.784 604.731 628.264 604.502C626.744 604.272 627.75 604.078 630.5 604.07C633.25 604.063 634.494 604.251 633.264 604.488ZM211.972 610.784C211.986 612.099 211.453 611.3 208.474 605.537C208.118 604.848 208.755 605.409 209.891 606.784C211.026 608.159 211.963 609.959 211.972 610.784ZM747.673 613.444C747.127 613.99 743 607.027 743 605.56C743 604.094 743.381 604.56 745.942 609.152C747.128 611.279 747.907 613.211 747.673 613.444ZM271.946 607.769C270.721 607.756 270.729 607.605 272 606.784C273.969 605.512 274.267 605.543 273.41 606.93C272.896 607.761 273.499 607.838 275.601 607.212C279.342 606.097 286.58 606.067 290.875 607.148C293.457 607.798 294.071 607.708 293.488 606.764C292.943 605.883 293.15 605.781 294.215 606.408C297.221 608.176 302 612.686 302 613.754C302 614.359 300.603 613.263 298.896 611.319C297.189 609.375 295.337 607.784 294.78 607.784C294.223 607.784 295.369 609.557 297.327 611.724C299.285 613.892 301.161 617.154 301.495 618.974C301.83 620.795 301.968 637.205 301.802 655.443L301.5 688.601L298.405 692.443C296.703 694.555 293.778 696.861 291.905 697.567L288.5 698.849L292 698.318C294.35 697.961 295.027 698.091 294.061 698.711C293.269 699.22 289.444 699.408 285.561 699.129C280.068 698.735 278.833 698.881 280 699.788C281.193 700.714 280.784 700.83 278 700.357C274.404 699.745 269.506 696.762 269.492 695.176C269.488 694.685 268.588 692.484 267.492 690.284C265.651 686.588 265.477 683.892 265.202 654.784C264.871 619.914 265.303 616.184 270.262 611.034C272.261 608.959 272.869 607.778 271.946 607.769ZM330.261 612.445C329.694 612.095 329.03 610.439 328.784 608.765C328.243 605.078 329.574 606.132 330.575 610.183C331.044 612.082 330.936 612.862 330.261 612.445ZM613.556 616.307C615.639 611.918 618.998 608.903 623.655 607.243C630.578 604.774 639.367 606.141 644.212 610.439C645.782 611.832 646.177 611.916 645.822 610.784C645.564 609.959 644.114 608.681 642.6 607.943C641.087 607.206 640.076 606.374 640.355 606.096C640.634 605.817 642.266 606.419 643.983 607.433C646.104 608.686 646.956 609.846 646.64 611.053C646.385 612.029 646.924 614.281 647.838 616.056C649.255 618.809 649.545 623.673 649.805 649.109C650.136 681.4 649.49 687.859 645.455 692.655C644.135 694.223 643.381 695.866 643.778 696.306C644.175 696.745 644.02 696.832 643.434 696.499C642.848 696.166 640.598 696.524 638.434 697.295C633.251 699.141 626.787 699.14 622.362 697.291C620.396 696.469 618.316 696.089 617.739 696.445C617.152 696.808 616.986 696.616 617.362 696.008C617.731 695.411 617.528 694.611 616.912 694.23C616.296 693.849 614.948 691.68 613.918 689.411C612.209 685.648 612.042 682.384 612.022 652.435C612.003 624.747 612.245 619.071 613.556 616.307ZM860.5 607.338L885 606.784C898.475 606.479 909.612 606.13 909.75 606.007C909.888 605.884 910 606.234 910 606.784C910 607.43 901.232 607.705 885.25 607.561L860.5 607.338ZM147.251 627.318C147.086 617.436 147.174 608.774 147.445 608.068C147.785 607.181 149.881 606.844 154.219 606.977L160.5 607.169L154.25 607.524L148 607.879L147.775 626.582L147.549 645.284L147.251 627.318ZM172.346 607.534C172.778 608.233 165.359 608.102 162 607.351C161.175 607.167 163.061 606.964 166.191 606.9C169.321 606.836 172.091 607.121 172.346 607.534ZM409.708 607.409C409.017 608.101 387.81 607.927 387.107 607.224C386.865 606.982 391.992 606.784 398.5 606.784C405.008 606.784 410.052 607.065 409.708 607.409ZM509.75 607.532C502.188 607.701 489.813 607.701 482.25 607.532C474.688 607.362 480.875 607.223 496 607.223C511.125 607.223 517.313 607.362 509.75 607.532ZM177.526 609.591C177.219 609.899 176.412 609.592 175.733 608.908C174.753 607.92 174.868 607.806 176.293 608.348C177.279 608.724 177.834 609.283 177.526 609.591ZM413.059 609.784C412.477 609.784 412 609.334 412 608.784C412 608.234 412.198 607.784 412.441 607.784C412.684 607.784 413.16 608.234 413.5 608.784C413.84 609.334 413.641 609.784 413.059 609.784ZM524.603 611.61C523.097 613.116 523.069 613.035 524.237 610.544C524.931 609.062 525.665 608.329 525.866 608.915C526.067 609.501 525.499 610.714 524.603 611.61ZM859.001 636.784C858.35 637.79 858.026 633.26 858.015 623.034C858.006 614.241 858.395 607.784 858.934 607.784C860.185 607.784 860.248 634.857 859.001 636.784ZM150 644.693V626.615V608.537L162 608.965C174.95 609.427 176.959 610.17 181.421 616.147C184.552 620.339 184.947 632.514 182.108 637.325C179.745 641.33 179.621 641.784 180.891 641.784C184.038 641.784 186.151 626.283 184.017 618.845C183.239 616.13 183.291 615.675 184.267 616.65C185 617.382 185.623 621.41 185.804 626.583C186.053 633.691 185.756 635.925 184.18 638.784C183.076 640.787 181.449 642.309 180.376 642.343C179.344 642.376 177.15 642.98 175.5 643.685C171.799 645.268 158.524 646.293 153.623 645.373L150 644.693ZM387 627.932C387 618.134 386.694 609.419 387.107 609C388.587 607.495 409.303 609.271 412.794 611.129C418.632 614.234 420.137 617.958 419.797 628.455C419.532 636.639 419.231 637.914 417 640.3C415.625 641.771 413.343 643.576 411.929 644.312C408.911 645.883 393.333 647.335 389.588 646.395L387 645.746V627.932ZM421.246 627.919C421.153 617.904 421.043 617.414 418.003 613.419L414.855 609.284L418.357 613.119C421.337 616.383 421.963 617.922 422.555 623.45C422.937 627.022 422.821 631.821 422.296 634.114C421.471 637.717 421.329 636.874 421.246 627.919ZM449.683 612.972C449.364 613.769 449.127 613.532 449.079 612.367C449.036 611.313 449.272 610.723 449.604 611.055C449.936 611.387 449.972 612.25 449.683 612.972ZM613.124 614.051C612.136 615.031 612.022 614.916 612.564 613.491C612.94 612.505 613.499 611.95 613.807 612.258C614.115 612.565 613.808 613.372 613.124 614.051ZM211.935 616.942C211.418 615.653 211.249 614.191 211.557 613.692C212.581 612.035 213.001 612.748 212.937 616.034C212.877 619.074 212.813 619.133 211.935 616.942ZM236.683 614.972C236.364 615.769 236.127 615.532 236.079 614.367C236.036 613.313 236.272 612.723 236.604 613.055C236.936 613.387 236.972 614.25 236.683 614.972ZM264.977 616.784C264.543 616.784 264.423 615.884 264.71 614.784C264.998 613.684 265.589 612.784 266.023 612.784C266.457 612.784 266.577 613.684 266.29 614.784C266.002 615.884 265.411 616.784 264.977 616.784ZM581.5 652.484C581.5 632.574 581.848 615.432 582.274 614.391C583.673 610.965 583.805 613.15 582.808 623.284C581.782 633.724 582.38 684.44 583.581 688.784C584.162 690.887 584.052 691.077 582.886 689.984C581.754 688.923 581.5 682.048 581.5 652.484ZM650.985 618.201C651.005 620.759 650.433 619.961 649.61 616.284C649.12 614.093 649.213 613.689 649.954 614.784C650.513 615.609 650.976 617.146 650.985 618.201ZM751 619.142C751 620.412 750.538 619.845 749.08 616.784C747.958 614.427 747.978 614.395 749.445 616.225C750.3 617.293 751 618.605 751 619.142ZM331.607 618.784C331.391 618.784 330.955 618.109 330.638 617.284C330.322 616.459 330.499 615.784 331.031 615.784C331.564 615.784 332 616.459 332 617.284C332 618.109 331.823 618.784 331.607 618.784ZM679 622.284C678.58 620.634 678.183 618.47 678.118 617.475C678.053 616.48 678.45 615.944 679 616.284C679.55 616.624 679.947 618.788 679.882 621.093C679.77 625.052 679.721 625.118 679 622.284ZM301.643 690.034C302.114 689.072 302.672 672.309 302.881 652.784C303.091 633.259 303.6 618.634 304.013 620.284C305.185 624.969 305.101 680.712 303.915 685.284C303.344 687.484 302.83 689.847 302.772 690.534C302.714 691.222 302.244 691.784 301.726 691.784C301.171 691.784 301.137 691.068 301.643 690.034ZM450.735 631.534C450.529 634.146 450.36 632.009 450.36 626.784C450.36 621.559 450.529 619.422 450.735 622.034C450.941 624.646 450.941 628.922 450.735 631.534ZM610.581 623.537C609.491 624.626 609.078 623.201 609.769 620.74L610.459 618.284L610.81 620.62C611.004 621.905 610.9 623.217 610.581 623.537ZM234.994 682.784C233.975 681.215 233.717 631.699 234.688 624.034C234.985 621.697 235.401 619.784 235.614 619.784C235.826 619.784 235.993 634.297 235.985 652.034C235.975 673.346 235.639 683.775 234.994 682.784ZM263.689 624.534C263.438 625.496 263.232 624.709 263.232 622.784C263.232 620.859 263.438 620.072 263.689 621.034C263.941 621.996 263.941 623.572 263.689 624.534ZM517 622.151C517 621.582 517.3 620.817 517.667 620.451C518.033 620.084 518.566 620.016 518.85 620.301C519.134 620.585 518.834 621.35 518.183 622.001C517.466 622.718 517 622.777 517 622.151ZM650.418 685.784C650.723 684.409 651.042 669.109 651.126 651.784C651.228 630.834 651.528 622.888 652.022 628.06C653.215 640.569 652.513 684.089 651.081 686.355C649.964 688.124 649.909 688.076 650.418 685.784ZM213.091 632.784C212.686 631.409 212.547 628.371 212.782 626.034C213.426 619.634 214.011 620.925 213.914 628.534C213.855 633.134 213.593 634.488 213.091 632.784ZM830.707 627.022C830.468 628.266 830.263 627.484 830.252 625.284C830.241 623.084 830.437 622.066 830.687 623.022C830.937 623.978 830.946 625.778 830.707 627.022ZM332.748 665.973C332.579 673.844 332.44 667.684 332.44 652.284C332.439 636.884 332.578 630.444 332.747 637.973C332.917 645.503 332.917 658.103 332.748 665.973ZM545 627.151C545 626.582 545.3 625.817 545.667 625.451C546.033 625.084 546.566 625.016 546.85 625.301C547.134 625.585 546.834 626.35 546.183 627.001C545.466 627.718 545 627.777 545 627.151ZM756 629.142C756 630.412 755.538 629.845 754.08 626.784C752.958 624.427 752.978 624.395 754.445 626.225C755.3 627.293 756 628.605 756 629.142ZM511.326 631.784C510.836 631.784 511.779 629.972 513.278 628.034C515 625.808 515.094 626.711 513.408 629.284C512.507 630.659 511.57 631.784 511.326 631.784ZM544 630.284C543.45 630.624 543 630.425 543 629.843C543 629.261 543.45 628.784 544 628.784C544.55 628.784 545 628.982 545 629.225C545 629.468 544.55 629.944 544 630.284ZM501.488 646.784C501.238 646.784 502.938 643.647 505.266 639.814C509.568 632.731 510 632.163 510 633.585C510 634.569 502.123 646.784 501.488 646.784ZM211.26 645.377C210.985 645.102 211.068 643.235 211.444 641.228C211.821 639.222 212.354 637.805 212.629 638.08C212.904 638.355 212.821 640.222 212.444 642.228C212.068 644.235 211.535 645.652 211.26 645.377ZM539 639.284C538.45 639.624 538 639.425 538 638.843C538 638.261 538.45 637.784 539 637.784C539.55 637.784 540 637.982 540 638.225C540 638.468 539.55 638.944 539 639.284ZM449.683 640.972C449.364 641.769 449.127 641.532 449.079 640.367C449.036 639.313 449.272 638.723 449.604 639.055C449.936 639.387 449.972 640.25 449.683 640.972ZM762.57 642.784C762.295 642.784 761.589 641.884 761 640.784C760.411 639.684 760.155 638.784 760.43 638.784C760.705 638.784 761.411 639.684 762 640.784C762.589 641.884 762.845 642.784 762.57 642.784ZM879.75 640.723C867.137 640.714 859 640.331 859 639.746C859 639.159 867.736 638.784 881.443 638.784H903.886L904.193 651.286L904.5 663.788L882 663.786L859.5 663.784L859.698 680.034L859.896 696.284L884.948 696.551C898.727 696.698 910 697.148 910 697.551C910 698.821 861.16 698.162 859.605 696.871C858.181 695.689 856.798 690.783 857.889 690.785C858.225 690.785 858.5 684.598 858.5 677.035V663.284L880.75 663.015L903 662.746V651.765C903 643.659 902.673 640.778 901.75 640.76C901.063 640.747 891.162 640.73 879.75 640.723ZM730.397 719.701C730.178 719.93 730 702.417 730 680.784C730 659.151 730.337 641.788 730.75 642.201C731.497 642.949 731.151 718.908 730.397 719.701ZM177 645.634C173.527 646.845 172.901 646.161 176.25 644.815C178.783 643.797 180 643.593 180 644.186C180 644.407 178.65 645.059 177 645.634ZM413.75 645.804C411.589 646.851 411.577 646.833 413.441 645.339C415.481 643.705 416 643.484 416 644.249C416 644.504 414.987 645.204 413.75 645.804ZM446.944 649.784C446.482 649.784 446.583 648.411 447.168 646.733C447.753 645.055 448.426 643.877 448.664 644.115C449.367 644.818 447.86 649.784 446.944 649.784ZM736.559 645.784C736.316 645.784 735.84 645.334 735.5 644.784C735.16 644.234 735.359 643.784 735.941 643.784C736.523 643.784 737 644.234 737 644.784C737 645.334 736.802 645.784 736.559 645.784ZM763.969 646.784C763.436 646.784 763 646.109 763 645.284C763 644.459 763.177 643.784 763.393 643.784C763.609 643.784 764.045 644.459 764.362 645.284C764.678 646.109 764.501 646.784 763.969 646.784ZM170.716 647.402C170.019 648.099 149.831 647.948 149.123 647.24C148.872 646.989 153.767 646.784 160 646.784C166.233 646.784 171.055 647.062 170.716 647.402ZM409.729 647.388C409.397 647.72 408.534 647.756 407.813 647.467C407.015 647.148 407.252 646.911 408.417 646.863C409.471 646.82 410.061 647.056 409.729 647.388ZM398.776 648.511C396.728 648.726 393.128 648.729 390.776 648.517C388.424 648.306 390.1 648.13 394.5 648.127C398.9 648.123 400.824 648.296 398.776 648.511ZM741.551 654.784C741.276 654.784 740.353 653.434 739.5 651.784C738.647 650.134 738.174 648.784 738.449 648.784C738.724 648.784 739.647 650.134 740.5 651.784C741.353 653.434 741.826 654.784 741.551 654.784ZM444.941 653.784C444.359 653.784 444.16 653.334 444.5 652.784C444.84 652.234 445.316 651.784 445.559 651.784C445.802 651.784 446 652.234 446 652.784C446 653.334 445.523 653.784 444.941 653.784ZM770.076 658.784C768.436 655.759 767.079 652.834 767.059 652.284C767.007 650.802 771.742 659.334 772.449 661.996C772.784 663.255 771.715 661.809 770.076 658.784ZM493.373 658.784C492.737 658.784 493.899 656.756 495.807 654.534C498.21 651.736 498.33 652.512 496 655.784C494.825 657.434 493.643 658.784 493.373 658.784ZM745.914 663.784C745.856 665.368 744.19 662.178 744.086 660.284C744.055 659.734 744.467 659.959 745 660.784C745.533 661.609 745.945 662.959 745.914 663.784ZM196.031 663.148C195.771 662.888 196.22 662.257 197.029 661.745C199.383 660.256 200.576 660.642 198.443 662.202C197.376 662.982 196.29 663.408 196.031 663.148ZM522.203 663.778C519.985 667.676 518.706 667.682 520.65 663.784C521.473 662.134 522.543 660.784 523.027 660.784C523.511 660.784 523.14 662.131 522.203 663.778ZM192.75 664.804C190.589 665.851 190.577 665.833 192.441 664.339C194.481 662.705 195 662.484 195 663.249C195 663.504 193.988 664.204 192.75 664.804ZM704.683 666.972C704.364 667.769 704.127 667.532 704.079 666.367C704.036 665.313 704.272 664.723 704.604 665.055C704.936 665.387 704.972 666.25 704.683 666.972ZM430.448 667.166C429.558 667.507 429.157 667.339 429.507 666.773C429.843 666.229 430.541 665.784 431.059 665.784C432.497 665.784 432.18 666.501 430.448 667.166ZM748.607 668.784C748.391 668.784 747.955 668.109 747.638 667.284C747.322 666.459 747.499 665.784 748.031 665.784C748.564 665.784 749 666.459 749 667.284C749 668.109 748.823 668.784 748.607 668.784ZM147.25 697.302C147.093 683.562 147.183 671.749 147.451 671.052C147.787 670.174 150.398 669.784 155.933 669.784C163.236 669.784 164.024 669.979 165.02 672.034C166.004 674.065 165.972 674.113 164.695 672.534C163.57 671.144 161.71 670.784 155.64 670.784H148L147.768 696.534L147.537 722.284L147.25 697.302ZM192.907 673.226C192.408 672.918 192 672.018 192 671.225C192 669.155 192.679 669.45 193.29 671.785C193.578 672.886 193.405 673.535 192.907 673.226ZM419 670.784C417.03 672.057 414.713 672.057 415.5 670.784C415.84 670.234 417.104 669.791 418.309 669.799C420.09 669.812 420.219 669.996 419 670.784ZM750.45 673.343C749.653 672.275 749 671.011 749 670.534C749 668.883 750.761 670.761 751.33 673.018C751.88 675.204 751.849 675.216 750.45 673.343ZM396.191 672.666C389.544 672.742 386.102 672.429 386.5 671.784C386.866 671.192 392.294 670.832 399.809 670.902C414.851 671.043 411.891 672.486 396.191 672.666ZM704.732 685.034C704.522 687.371 704.349 685.459 704.349 680.784C704.349 676.109 704.522 674.197 704.732 676.534C704.943 678.871 704.943 682.697 704.732 685.034ZM830.718 679.52C830.488 681.04 830.294 680.034 830.286 677.284C830.279 674.534 830.467 673.29 830.704 674.52C830.941 675.75 830.947 678 830.718 679.52ZM166.907 678.226C166.408 677.918 166 677.018 166 676.225C166 674.155 166.679 674.45 167.29 676.785C167.578 677.886 167.405 678.535 166.907 678.226ZM196.364 678.753C195.814 679.304 194.038 676.725 194.015 675.343C194.007 674.825 194.638 675.275 195.418 676.341C196.198 677.408 196.624 678.494 196.364 678.753ZM510.187 681.259C509.453 681.544 509.814 680.45 511.005 678.777C512.177 677.131 513.288 675.784 513.474 675.784C514.356 675.784 511.338 680.811 510.187 681.259ZM756.145 684.284C755.617 683.734 754.445 681.484 753.541 679.284C752.636 677.084 752.327 675.734 752.855 676.284C753.383 676.834 754.555 679.084 755.459 681.284C756.364 683.484 756.673 684.834 756.145 684.284ZM678.35 685.784C678.693 684.409 679.06 681.709 679.167 679.784C679.314 677.128 679.452 677.463 679.741 681.174C679.972 684.151 679.653 686.497 678.924 687.174C678.01 688.022 677.875 687.695 678.35 685.784ZM199 684.142C199 685.412 198.538 684.845 197.08 681.784C195.958 679.427 195.978 679.395 197.445 681.225C198.3 682.293 199 683.605 199 684.142ZM263.693 683.515C263.439 684.488 263.215 683.934 263.195 682.284C263.175 680.634 263.382 679.838 263.656 680.515C263.93 681.192 263.947 682.542 263.693 683.515ZM610.617 685.784C610.406 685.784 610.018 684.659 609.755 683.284C609.492 681.909 609.665 680.784 610.139 680.784C610.612 680.784 611 681.909 611 683.284C611 684.659 610.827 685.784 610.617 685.784ZM170 684.784C169.467 683.959 169.031 682.834 169.031 682.284C169.031 681.734 169.467 681.959 170 682.784C170.533 683.609 170.969 684.734 170.969 685.284C170.969 685.834 170.533 685.609 170 684.784ZM331.693 688.515C331.439 689.488 331.215 688.934 331.195 687.284C331.175 685.634 331.382 684.838 331.656 685.515C331.93 686.192 331.947 687.542 331.693 688.515ZM173 691.784C171.9 689.628 171.018 687.508 171.04 687.074C171.089 686.099 173.769 690.986 175.64 695.464C176.474 697.461 176.623 698.784 176.013 698.784C175.456 698.784 175 698.091 175 697.244C175 696.397 174.1 693.94 173 691.784ZM204.469 696.784C203.941 696.784 200 689.147 200 688.124C200 687.717 200.408 687.812 200.907 688.334C201.998 689.476 205.079 696.784 204.469 696.784ZM236.907 691.226C236.408 690.918 236 690.018 236 689.225C236 687.155 236.679 687.45 237.29 689.785C237.578 690.886 237.405 691.535 236.907 691.226ZM265 690.284C264.45 689.944 264 689.243 264 688.725C264 688.207 264.45 687.784 265 687.784C265.55 687.784 266 688.486 266 689.343C266 690.2 265.55 690.624 265 690.284ZM471.891 692.351C471.287 692.725 471.566 691.85 472.511 690.407C473.457 688.964 474.419 687.784 474.65 687.784C475.374 687.784 473.045 691.638 471.891 692.351ZM677.331 694.449C677.096 694.213 677.204 692.821 677.571 691.355C677.939 689.89 678.433 688.884 678.669 689.119C678.904 689.355 678.796 690.747 678.429 692.213C678.061 693.678 677.567 694.684 677.331 694.449ZM760.059 690.784C759.477 690.784 759 690.334 759 689.784C759 689.234 759.198 688.784 759.441 688.784C759.684 688.784 760.16 689.234 760.5 689.784C760.84 690.334 760.641 690.784 760.059 690.784ZM329.063 696.116C329.029 694.923 329.324 693.123 329.72 692.116C330.313 690.609 330.497 690.561 330.758 691.846C330.932 692.706 330.636 694.506 330.101 695.846C329.177 698.159 329.124 698.173 329.063 696.116ZM614.75 693.912C613.788 693.157 613 692.069 613 691.495C613 690.921 613.127 690.638 613.283 690.867C613.439 691.097 614.226 692.184 615.033 693.284C616.39 695.134 616.369 695.181 614.75 693.912ZM297.579 696.558C295.857 698.207 295.835 698.186 297.1 696.079C297.829 694.867 298.64 694.09 298.903 694.353C299.166 694.616 298.57 695.608 297.579 696.558ZM469.276 696.394C469.014 696.132 469.096 695.437 469.459 694.851C470.445 693.255 471.021 693.565 470.345 695.327C470.019 696.176 469.538 696.656 469.276 696.394ZM276.322 698.784C275.167 698.784 273.159 697.899 271.861 696.817C268.831 694.293 269.595 694.283 274.5 696.784C277.351 698.238 277.849 698.784 276.322 698.784ZM763.607 697.784C763.391 697.784 762.955 697.109 762.638 696.284C762.322 695.459 762.499 694.784 763.031 694.784C763.564 694.784 764 695.459 764 696.284C764 697.109 763.823 697.784 763.607 697.784ZM562.763 697.355C561.995 698.122 504.037 698.154 503.27 697.387C502.938 697.056 516.317 696.784 533 696.784C549.683 696.784 563.077 697.041 562.763 697.355ZM586.5 700.784C585.714 699.409 585.071 697.834 585.071 697.284C585.071 696.734 585.714 697.409 586.5 698.784C587.286 700.159 587.929 701.734 587.929 702.284C587.929 702.834 587.286 702.159 586.5 700.784ZM625.64 700.011C626.32 701.111 622.048 700.066 620.674 698.796C620.22 698.376 621.014 698.255 622.439 698.528C623.864 698.8 625.304 699.467 625.64 700.011ZM636 699.854C636 699.342 637.013 698.728 638.25 698.49C642.276 697.714 642.538 697.833 640 699.284C637.045 700.973 636 701.122 636 699.854ZM674.484 701.343C673.078 703.143 673.053 703.084 674.144 700.534C675.322 697.783 676 697.073 676 698.593C676 699.038 675.318 700.275 674.484 701.343ZM207.644 704.474C207.417 704.701 206.753 703.513 206.168 701.835C205.583 700.157 205.317 698.784 205.577 698.784C206.252 698.784 208.139 703.979 207.644 704.474ZM245.209 709.372C243.553 708.402 239 701.213 239 699.569C239 698.878 239.949 700.107 241.109 702.299C242.269 704.491 243.957 707.149 244.859 708.206C245.762 709.263 245.919 709.788 245.209 709.372ZM765.059 700.784C764.477 700.784 764 700.334 764 699.784C764 699.234 764.198 698.784 764.441 698.784C764.684 698.784 765.16 699.234 765.5 699.784C765.84 700.334 765.641 700.784 765.059 700.784ZM327.031 702.784C326.499 702.784 326.322 702.109 326.638 701.284C326.955 700.459 327.391 699.784 327.607 699.784C327.823 699.784 328 700.459 328 701.284C328 702.109 327.564 702.784 327.031 702.784ZM909.969 702.784C909.436 702.784 909 702.109 909 701.284C909 700.459 909.177 699.784 909.393 699.784C909.609 699.784 910.045 700.459 910.362 701.284C910.678 702.109 910.501 702.784 909.969 702.784ZM769.753 709.364C769.536 709.581 768.61 708.19 767.695 706.271C766.781 704.353 766.239 702.784 766.49 702.784C767.175 702.784 770.21 708.907 769.753 709.364ZM909.718 710.52C909.488 712.04 909.294 711.034 909.286 708.284C909.279 705.534 909.467 704.29 909.704 705.52C909.941 706.75 909.947 709 909.718 710.52ZM181.112 710.234C180.624 709.712 179.93 708.159 179.571 706.784L178.917 704.284L180.423 706.784C182.102 709.57 182.54 711.761 181.112 710.234ZM594.25 711.347C592.462 709.732 591 707.969 591 707.43C591 706.891 591.112 706.64 591.25 706.872C591.388 707.104 592.85 708.867 594.5 710.789L597.5 714.284L594.25 711.347ZM213.471 716.784C213.065 716.784 209 708.82 209 708.025C209 707.814 209.593 708.236 210.317 708.963C211.644 710.294 214.261 716.784 213.471 716.784ZM666.053 710.317C666.449 710.562 667.329 710.092 668.009 709.273C669.777 707.143 670.235 707.435 668.78 709.765C667.239 712.232 665.333 713.044 665.333 711.233C665.333 710.484 665.657 710.072 666.053 710.317ZM320.854 711.379C318.72 713.274 318.715 713.272 319.89 711.034C320.539 709.797 321.505 708.784 322.035 708.784C323.456 708.784 323.238 709.263 320.854 711.379ZM183.954 717.284C182.88 714.534 182.038 712.059 182.082 711.784C182.252 710.72 185.946 719.367 185.927 720.784C185.916 721.609 185.028 720.034 183.954 717.284ZM774.551 718.784C773.975 718.784 771 713.24 771 712.167C771 711.123 771.542 711.884 773.399 715.534C774.308 717.322 774.826 718.784 774.551 718.784ZM830.683 714.972C830.364 715.769 830.127 715.532 830.079 714.367C830.036 713.313 830.272 712.723 830.604 713.055C830.936 713.387 830.972 714.25 830.683 714.972ZM255.792 717.325C254.856 718.261 250.855 715.828 251.531 714.734C251.854 714.211 252.343 713.784 252.618 713.784C252.893 713.784 252.872 714.183 252.57 714.67C252.269 715.158 253.01 715.815 254.218 716.131C255.425 716.446 256.133 716.984 255.792 717.325ZM315 716.284C311.239 718.229 311.012 717.384 314.75 715.356C317.893 713.651 318 713.615 318 714.258C318 714.519 316.65 715.431 315 716.284ZM599.543 716.439C598.694 716.113 598 715.379 598 714.807C598 714.149 598.717 714.215 599.955 714.988C602.164 716.367 601.889 717.339 599.543 716.439ZM264 720.807C264 721.734 260.179 720.883 259.515 719.808C259.265 719.404 260.172 719.285 261.53 719.545C262.889 719.805 264 720.373 264 720.807ZM608.25 720.858C607.563 720.817 607 720.365 607 719.854C607 719.287 608.224 719.275 610.136 719.823C614.024 720.938 615.239 721.987 611.939 721.381C610.598 721.134 608.938 720.899 608.25 720.858ZM647.5 721.795L650.5 720.335C654 718.631 655.855 718.339 654.45 719.713C653.928 720.224 652.15 720.902 650.5 721.219L647.5 721.795ZM214.941 721.784C214.359 721.784 214.16 721.334 214.5 720.784C214.84 720.234 215.316 719.784 215.559 719.784C215.802 719.784 216 720.234 216 720.784C216 721.334 215.523 721.784 214.941 721.784ZM910 721.784C909.45 721.784 909 721.334 909 720.784C909 720.234 909.45 719.784 910 719.784C910.55 719.784 911 720.234 911 720.784C911 721.334 910.55 721.784 910 721.784ZM270.5 722.784C269.125 722.784 268 722.396 268 721.923C268 721.449 269.125 721.276 270.5 721.539C271.875 721.802 273 722.19 273 722.401C273 722.611 271.875 722.784 270.5 722.784ZM618 722.784C616.35 722.784 615 722.412 615 721.957C615 721.502 616.35 721.329 618 721.571C619.65 721.813 621 722.185 621 722.397C621 722.61 619.65 722.784 618 722.784ZM644.882 722.784C644.332 722.784 644.16 722.334 644.5 721.784C644.84 721.234 645.568 720.784 646.118 720.784C646.668 720.784 646.84 721.234 646.5 721.784C646.16 722.334 645.432 722.784 644.882 722.784ZM782.25 721.446C781.563 721.724 780.438 721.724 779.75 721.446C779.063 721.169 779.625 720.942 781 720.942C782.375 720.942 782.938 721.169 782.25 721.446ZM868 721.056C870.475 721.056 871.487 721.251 870.25 721.49C869.013 721.728 866.987 721.728 865.75 721.49C864.513 721.251 865.525 721.056 868 721.056ZM631.691 723.705C627.946 723.748 625.12 723.399 625.411 722.928C625.702 722.457 628.316 722.268 631.22 722.507C639.135 723.16 639.314 723.617 631.691 723.705ZM284 723.133C288.675 723.133 290.587 723.306 288.25 723.516C285.913 723.727 282.087 723.727 279.75 723.516C277.413 723.306 279.325 723.133 284 723.133Z" fill="black"></path>
<path fill-rule="evenodd" clip-rule="evenodd" d="M55.692 607.572C56.791 608.271 38.054 608.106 33.5 607.377C32.4 607.2 36.675 607.002 43 606.935C49.325 606.869 55.036 607.156 55.692 607.572Z" fill="black"></path>
<path fill-rule="evenodd" clip-rule="evenodd" d="M30.6889 613.534C30.4379 614.496 30.2319 613.709 30.2319 611.784C30.2319 609.859 30.4379 609.072 30.6889 610.034C30.9409 610.996 30.9409 612.572 30.6889 613.534Z" fill="black"></path>
<path fill-rule="evenodd" clip-rule="evenodd" d="M68.5 586.658C67.4 586.622 64.25 585.985 61.5 585.243L56.5 583.894L62 584.451C67.48 585.005 72.758 586.797 68.5 586.658Z" fill="black"></path>
<path fill-rule="evenodd" clip-rule="evenodd" d="M41.7891 583.522C38.6481 583.72 33.2481 583.721 29.7891 583.525C26.3301 583.33 28.9001 583.168 35.5001 583.166C42.1001 583.164 44.9301 583.324 41.7891 583.522Z" fill="black"></path>
<path d="M94.015 613.475C94.024 613.92 94.467 614.959 95 615.784C95.835 617.077 95.971 617.05 95.985 615.593C95.993 614.663 95.55 613.624 95 613.284C94.45 612.944 94.007 613.03 94.015 613.475Z" fill="black"></path>
<path fill-rule="evenodd" clip-rule="evenodd" d="M2.68304 610.972C2.36404 611.769 2.12703 611.532 2.07903 610.367C2.03603 609.313 2.27204 608.723 2.60404 609.055C2.93604 609.387 2.97204 610.25 2.68304 610.972Z" fill="black"></path>
<path fill-rule="evenodd" clip-rule="evenodd" d="M4.72898 583.388C4.39698 583.72 3.53398 583.756 2.81298 583.467C2.01498 583.148 2.25199 582.911 3.41699 582.863C4.47099 582.82 5.06098 583.056 4.72898 583.388Z" fill="black"></path>
<path fill-rule="evenodd" clip-rule="evenodd" d="M10.25 583.5C8.73804 583.271 9.97504 583.084 13 583.084C16.025 583.084 17.262 583.271 15.75 583.5C14.238 583.729 11.762 583.729 10.25 583.5Z" fill="black"></path>
<path fill-rule="evenodd" clip-rule="evenodd" d="M77 590.478C75.35 589.855 74 588.994 74 588.565C74 587.526 74.447 587.575 77.453 588.945C81.023 590.571 80.645 591.854 77 590.478Z" fill="black"></path>
<path fill-rule="evenodd" clip-rule="evenodd" d="M90.5701 602.784C90.2951 602.784 89.5891 601.884 89.0001 600.784C88.4111 599.684 88.1551 598.784 88.4301 598.784C88.7051 598.784 89.4111 599.684 90.0001 600.784C90.5891 601.884 90.8451 602.784 90.5701 602.784Z" fill="black"></path>
<path fill-rule="evenodd" clip-rule="evenodd" d="M96.7069 626.022C96.4679 627.266 96.2629 626.484 96.2519 624.284C96.2409 622.084 96.4369 621.066 96.6869 622.022C96.9369 622.978 96.9459 624.778 96.7069 626.022Z" fill="black"></path>
<path fill-rule="evenodd" clip-rule="evenodd" d="M93.662 610.034C93.385 610.722 93.158 610.159 93.158 608.784C93.158 607.409 93.385 606.847 93.662 607.534C93.94 608.222 93.94 609.347 93.662 610.034Z" fill="black"></path>
<path fill-rule="evenodd" clip-rule="evenodd" d="M30.7489 670.469C30.5859 680.817 30.4529 672.634 30.4529 652.284C30.4519 631.934 30.5849 623.467 30.7479 633.469C30.9109 643.47 30.9119 660.12 30.7489 670.469Z" fill="black"></path>
<path fill-rule="evenodd" clip-rule="evenodd" d="M54.8761 697.241C54.1331 697.984 32.0661 698.183 31.3361 697.453C30.9681 697.085 36.2171 696.784 43.0001 696.784C49.7831 696.784 55.1281 696.99 54.8761 697.241Z" fill="black"></path>
<path fill-rule="evenodd" clip-rule="evenodd" d="M66.5879 684.941C66.9059 683.48 67.3399 681.722 67.5519 681.034C67.7639 680.347 68.1219 679.784 68.3469 679.784C69.1349 679.784 66.7809 689.292 65.7469 690.284C65.0339 690.969 64.9109 690.704 65.3569 689.441C65.7149 688.428 66.2689 686.403 66.5879 684.941Z" fill="black"></path>
<path fill-rule="evenodd" clip-rule="evenodd" d="M2.71808 687.52C2.48808 689.04 2.29408 688.034 2.28608 685.284C2.27908 682.534 2.46707 681.29 2.70407 682.52C2.94107 683.75 2.94708 686 2.71808 687.52Z" fill="black"></path>
<path fill-rule="evenodd" clip-rule="evenodd" d="M41.7501 721.49C40.5121 721.251 41.5251 721.056 44.0001 721.056C46.4751 721.056 47.4881 721.251 46.2501 721.49C45.0121 721.728 42.9881 721.728 41.7501 721.49Z" fill="black"></path>
<path fill-rule="evenodd" clip-rule="evenodd" d="M76 716.284C72.239 718.229 72.012 717.384 75.75 715.356C78.893 713.651 79 713.615 79 714.258C79 714.519 77.65 715.431 76 716.284Z" fill="black"></path>
<path fill-rule="evenodd" clip-rule="evenodd" d="M82.229 712.25C80.901 712.759 80.942 712.505 82.461 710.827C84.639 708.42 85.138 708.26 84.391 710.207C84.091 710.989 83.118 711.909 82.229 712.25Z" fill="black"></path>
<path fill-rule="evenodd" clip-rule="evenodd" d="M88.2571 706.374C88.0261 706.144 88.3401 705.017 88.9541 703.87C90.5231 700.938 91.1941 701.264 89.8161 704.288C89.1891 705.666 88.4871 706.604 88.2571 706.374Z" fill="black"></path>
<path fill-rule="evenodd" clip-rule="evenodd" d="M92.905 697.784C92.431 697.784 92.556 696.657 93.184 695.28C93.811 693.902 94.459 692.91 94.623 693.073C95.231 693.682 93.735 697.784 92.905 697.784Z" fill="black"></path>
<path fill-rule="evenodd" clip-rule="evenodd" d="M94.8169 690.171C94.3499 689.882 94.2259 689.227 94.5429 688.715C95.3509 687.407 95.6669 687.554 95.6669 689.24C95.6669 690.041 95.2839 690.46 94.8169 690.171Z" fill="black"></path>
<path fill-rule="evenodd" clip-rule="evenodd" d="M96.725 681.016C96.502 682.813 96.315 681.584 96.31 678.284C96.304 674.984 96.486 673.513 96.715 675.016C96.943 676.519 96.947 679.219 96.725 681.016Z" fill="black"></path>
<path fill-rule="evenodd" clip-rule="evenodd" d="M96.662 658.034C96.385 658.722 96.158 658.159 96.158 656.784C96.158 655.409 96.385 654.847 96.662 655.534C96.94 656.222 96.94 657.347 96.662 658.034Z" fill="black"></path>
<path fill-rule="evenodd" clip-rule="evenodd" d="M0 653.307C0 615.709 0.272995 584.236 0.606995 583.366C1.13999 581.977 4.554 581.784 28.649 581.784C57.364 581.784 65.94 582.686 75.28 586.69C80.594 588.968 86.216 593.625 85.348 595.03C84.987 595.615 85.145 595.812 85.7 595.469C88.125 593.97 94.648 605.009 97.113 614.784C98.155 618.915 98.499 628.375 98.497 652.784C98.494 688.004 97.883 693.062 92.51 702.318C89.368 707.732 80.908 715.505 75.717 717.748C69.485 720.441 63.223 722.121 64 720.863C64.732 719.68 59.685 719.359 54.5 720.863C52.386 721.476 53.714 721.606 59 721.305C65.734 720.92 66.04 720.977 62 721.859C56.495 723.061 2.993 723.603 1.25 722.475C0.27 721.841 0 706.896 0 653.307ZM55.692 607.572C56.791 608.271 38.054 608.106 33.5 607.377C32.4 607.2 36.675 607.002 43 606.935C49.325 606.869 55.036 607.156 55.692 607.572ZM30.689 613.534C30.438 614.496 30.232 613.709 30.232 611.784C30.232 609.859 30.438 609.072 30.689 610.034C30.941 610.996 30.941 612.572 30.689 613.534ZM68.5 586.658C67.4 586.622 64.25 585.985 61.5 585.243L56.5 583.894L62 584.451C67.48 585.005 72.758 586.797 68.5 586.658ZM41.789 583.522C38.648 583.72 33.248 583.721 29.789 583.525C26.33 583.33 28.9 583.168 35.5 583.166C42.1 583.164 44.93 583.324 41.789 583.522ZM94.015 613.475C94.024 613.92 94.467 614.959 95 615.784C95.835 617.077 95.971 617.05 95.985 615.593C95.993 614.663 95.55 613.624 95 613.284C94.45 612.944 94.007 613.03 94.015 613.475ZM2.683 610.972C2.364 611.769 2.12699 611.532 2.07899 610.367C2.03599 609.313 2.272 608.723 2.604 609.055C2.936 609.387 2.972 610.25 2.683 610.972ZM4.729 583.388C4.397 583.72 3.534 583.756 2.813 583.467C2.015 583.148 2.25201 582.911 3.41701 582.863C4.47101 582.82 5.061 583.056 4.729 583.388ZM10.25 583.5C8.738 583.271 9.975 583.084 13 583.084C16.025 583.084 17.262 583.271 15.75 583.5C14.238 583.729 11.762 583.729 10.25 583.5ZM77 590.478C75.35 589.855 74 588.994 74 588.565C74 587.526 74.447 587.575 77.453 588.945C81.023 590.571 80.645 591.854 77 590.478ZM90.57 602.784C90.295 602.784 89.589 601.884 89 600.784C88.411 599.684 88.155 598.784 88.43 598.784C88.705 598.784 89.411 599.684 90 600.784C90.589 601.884 90.845 602.784 90.57 602.784ZM96.707 626.022C96.468 627.266 96.263 626.484 96.252 624.284C96.241 622.084 96.437 621.066 96.687 622.022C96.937 622.978 96.946 624.778 96.707 626.022ZM93.662 610.034C93.385 610.722 93.158 610.159 93.158 608.784C93.158 607.409 93.385 606.847 93.662 607.534C93.94 608.222 93.94 609.347 93.662 610.034ZM30.749 670.469C30.586 680.817 30.453 672.634 30.453 652.284C30.452 631.934 30.585 623.467 30.748 633.469C30.911 643.47 30.912 660.12 30.749 670.469ZM54.876 697.241C54.133 697.984 32.066 698.183 31.336 697.453C30.968 697.085 36.217 696.784 43 696.784C49.783 696.784 55.128 696.99 54.876 697.241ZM66.588 684.941C66.906 683.48 67.34 681.722 67.552 681.034C67.764 680.347 68.122 679.784 68.347 679.784C69.135 679.784 66.781 689.292 65.747 690.284C65.034 690.969 64.911 690.704 65.357 689.441C65.715 688.428 66.269 686.403 66.588 684.941ZM2.718 687.52C2.488 689.04 2.294 688.034 2.286 685.284C2.279 682.534 2.46699 681.29 2.70399 682.52C2.94099 683.75 2.947 686 2.718 687.52ZM41.75 721.49C40.512 721.251 41.525 721.056 44 721.056C46.475 721.056 47.488 721.251 46.25 721.49C45.012 721.728 42.988 721.728 41.75 721.49ZM76 716.284C72.239 718.229 72.012 717.384 75.75 715.356C78.893 713.651 79 713.615 79 714.258C79 714.519 77.65 715.431 76 716.284ZM82.229 712.25C80.901 712.759 80.942 712.505 82.461 710.827C84.639 708.42 85.138 708.26 84.391 710.207C84.091 710.989 83.118 711.909 82.229 712.25ZM88.257 706.374C88.026 706.144 88.34 705.017 88.954 703.87C90.523 700.938 91.194 701.264 89.816 704.288C89.189 705.666 88.487 706.604 88.257 706.374ZM92.905 697.784C92.431 697.784 92.556 696.657 93.184 695.28C93.811 693.902 94.459 692.91 94.623 693.073C95.231 693.682 93.735 697.784 92.905 697.784ZM94.817 690.171C94.35 689.882 94.226 689.227 94.543 688.715C95.351 687.407 95.667 687.554 95.667 689.24C95.667 690.041 95.284 690.46 94.817 690.171ZM32 612C31.656 613.719 32 632.957 32 654.864V696H35.5C40.842 697.003 57.804 695.38 59.196 693.988C61.174 692.01 62.156 692.623 60.871 695.034C59.774 697.094 59.817 697.165 61.382 695.874C62.322 695.098 61.664 693.736 61.382 693C61.1 692.265 62.949 690.291 64.029 688.46C66.862 683.658 67.758 671.794 67.206 646.391C66.839 629.53 67.005 624.669 67.929 625.24C69.877 626.444 68.048 618.845 65.362 614.577C64.079 612.538 62.084 610.364 60.929 609.746C57.719 608.028 57.744 609.095 60.963 611.259C64.142 613.395 67.638 621.61 67.5 625C67.436 626.566 66.528 623.257 65.825 620.784C63.187 611.499 57.838 608.784 42.182 608.784H32V612ZM96.079 631.367C96.127 632.532 96.364 632.769 96.683 631.972C96.972 631.25 96.936 630.387 96.604 630.055C96.272 629.723 96.036 630.313 96.079 631.367ZM96.079 642.367C96.127 643.532 96.364 643.769 96.683 642.972C96.972 642.25 96.936 641.387 96.604 641.055C96.272 640.723 96.036 641.313 96.079 642.367ZM96.158 656.784C96.158 658.159 96.385 658.722 96.662 658.034C96.94 657.347 96.94 656.222 96.662 655.534C96.385 654.847 96.158 655.409 96.158 656.784ZM96.31 678.284C96.315 681.584 96.502 682.813 96.725 681.016C96.947 679.219 96.943 676.519 96.715 675.016C96.486 673.513 96.304 674.984 96.31 678.284Z" fill="black"></path>
<path fill-rule="evenodd" clip-rule="evenodd" d="M96.683 642.972C96.364 643.769 96.127 643.532 96.079 642.367C96.036 641.313 96.272 640.723 96.604 641.055C96.936 641.387 96.972 642.25 96.683 642.972Z" fill="black"></path>
<path fill-rule="evenodd" clip-rule="evenodd" d="M96.683 631.972C96.364 632.769 96.127 632.532 96.079 631.367C96.036 630.313 96.272 629.723 96.604 630.055C96.936 630.387 96.972 631.25 96.683 631.972Z" fill="black"></path>
</g>
<defs>
<clipPath id="SvgjsClipPath1013">
<rect width="912" height="725" fill="white"></rect>
</clipPath>
</defs>
</svg><style>@media (prefers-color-scheme: light) { :root { filter: none; } }
@media (prefers-color-scheme: dark) { :root { filter: invert(100%); } }
</style></svg>